<svg width="123" height="123" viewBox="0 0 123 123" fill="none" xmlns="http://www.w3.org/2000/svg">
<circle cx="61.3983" cy="61.3983" r="61.3983" fill="#A245C7"/>
<g clip-path="url(#clip0)">
<path d="M69.4192 86.7073V88.6852C69.4192 90.2592 68.2765 91.5685 66.7897 91.7914L66.3078 93.5883C66.0462 94.5633 65.1789 95.2458 64.1739 95.2458H59.3967C58.3917 95.2458 57.5244 94.5633 57.2628 93.5883L56.7947 91.7914C55.2941 91.5546 54.1514 90.2592 54.1514 88.6713V86.6933C54.1514 85.6347 54.9912 84.7851 56.0375 84.7851H67.5331C68.5794 84.799 69.4192 85.6487 69.4192 86.7073ZM78.2715 60.0469C78.2715 64.546 76.5093 68.6273 73.6457 71.622C71.4705 73.9064 70.0663 76.8176 69.5982 79.9238C69.3917 81.261 68.249 82.25 66.8998 82.25H56.6708C55.3354 82.25 54.179 81.2749 53.9862 79.9377C53.5044 76.8315 52.0864 73.8785 49.9111 71.6081C47.1026 68.6551 45.3542 64.6435 45.3129 60.228C45.2165 50.9512 52.5131 43.4434 61.6821 43.3738C70.8372 43.3041 78.2715 50.798 78.2715 60.0469ZM63.6508 49.9483C63.6508 48.9176 62.8247 48.0679 61.7922 48.0679C55.239 48.0679 49.8974 53.4585 49.8974 60.1026C49.8974 61.1334 50.7234 61.9831 51.7559 61.9831C52.7747 61.9831 53.6145 61.1473 53.6145 60.1026C53.6145 55.5339 57.2903 51.8288 61.7922 51.8288C62.8247 51.8288 63.6508 50.993 63.6508 49.9483ZM61.7922 37.8996C62.811 37.8996 63.6508 37.0639 63.6508 36.0192V29.4307C63.6508 28.4 62.8247 27.5503 61.7922 27.5503C60.7597 27.5503 59.9336 28.386 59.9336 29.4307V36.0192C59.9336 37.0639 60.7734 37.8996 61.7922 37.8996ZM39.9162 60.033C39.9162 59.0022 39.0902 58.1526 38.0576 58.1526H31.5458C30.527 58.1526 29.6872 58.9883 29.6872 60.033C29.6872 61.0638 30.5132 61.9134 31.5458 61.9134H38.0576C39.0902 61.9134 39.9162 61.0777 39.9162 60.033ZM92.0386 58.1526H85.5268C84.508 58.1526 83.6682 58.9883 83.6682 60.033C83.6682 61.0638 84.4942 61.9134 85.5268 61.9134H92.0386C93.0574 61.9134 93.8972 61.0777 93.8972 60.033C93.8972 59.0022 93.0712 58.1526 92.0386 58.1526ZM43.7022 75.6893L39.0902 80.3556C38.3605 81.0938 38.3605 82.2778 39.0902 83.0161C39.4481 83.3782 39.93 83.5593 40.398 83.5593C40.8661 83.5593 41.348 83.3782 41.7059 83.0161L46.3179 78.3498C47.0476 77.6116 47.0476 76.4276 46.3179 75.6893C45.602 74.9511 44.418 74.9511 43.7022 75.6893ZM78.5744 44.9338C79.0424 44.9338 79.5243 44.7528 79.8822 44.3906L84.4942 39.7243C85.2239 38.9861 85.2239 37.8021 84.4942 37.0639C83.7646 36.3256 82.5944 36.3256 81.8647 37.0639L77.2527 41.7301C76.5231 42.4684 76.5231 43.6524 77.2527 44.3906C77.6244 44.7528 78.0925 44.9338 78.5744 44.9338ZM43.7022 44.3767C44.0601 44.7388 44.542 44.9199 45.01 44.9199C45.4781 44.9199 45.96 44.7388 46.3179 44.3767C47.0476 43.6384 47.0476 42.4545 46.3179 41.7162L41.7059 37.05C40.9763 36.3117 39.8061 36.3117 39.0764 37.05C38.3467 37.7882 38.3467 38.9722 39.0764 39.7104L43.7022 44.3767ZM79.8822 75.6893C79.1526 74.9511 77.9824 74.9511 77.2527 75.6893C76.5231 76.4276 76.5231 77.6116 77.2527 78.3498L81.8647 83.0161C82.2227 83.3782 82.7045 83.5593 83.1726 83.5593C83.6407 83.5593 84.1225 83.3782 84.4805 83.0161C85.2101 82.2778 85.2101 81.0938 84.4805 80.3556L79.8822 75.6893Z" fill="white"/>
</g>
<defs>
<clipPath id="clip0">
<rect width="66.9084" height="67.6955" fill="white" transform="translate(28.3379 27.5503)"/>
</clipPath>
</defs>
</svg>
