<svg width="517" height="123" viewBox="0 0 517 123" fill="none" xmlns="http://www.w3.org/2000/svg">
<circle cx="61.3983" cy="61.3983" r="61.3983" fill="#C4865F"/>
<g clip-path="url(#clip0)">
<path d="M61.3981 49.9752C64.8055 49.9752 67.5658 47.2152 67.5658 43.8074C67.5658 40.4019 64.8057 37.6406 61.3981 37.6406C57.9905 37.6406 55.2323 40.4019 55.2323 43.8074C55.2324 47.2151 57.9905 49.9752 61.3981 49.9752Z" fill="white"/>
<path d="M90.9577 29.885C90.0932 29.885 89.3621 30.3346 88.889 30.9855V30.1523C88.889 28.7148 87.7222 27.5503 86.2855 27.5503C84.8492 27.5503 83.6823 28.7148 83.6823 30.1524V34.002H39.1133V30.1524C39.1133 28.7148 37.9468 27.5503 36.5101 27.5503C35.0737 27.5503 33.9068 28.7148 33.9068 30.1524V30.9856C33.4338 30.3348 32.7024 29.8851 31.8383 29.8851C30.4019 29.8851 29.2351 31.0496 29.2351 32.4873V38.9101C29.2351 40.3476 30.4019 41.5122 31.8383 41.5122C32.7024 41.5122 33.4338 41.0626 33.9068 40.4128V41.246C33.9068 42.6836 35.0737 43.8482 36.5101 43.8482C37.9466 43.8482 39.1133 42.6836 39.1133 41.246V37.3964H40.7575C40.8016 37.6363 45.9219 47.7409 45.9219 47.7409C46.0589 48.0084 46.2423 48.2493 46.4632 48.4547L53.9239 55.3937V73.7623L47.8733 79.5743C47.2722 80.15 46.9342 80.9456 46.9342 81.7778V92.1906C46.9342 93.8779 48.302 95.2458 49.9883 95.2458C51.6746 95.2458 53.0423 93.8779 53.0423 92.1906V83.0794L57.442 78.853H65.3534L69.7557 83.0794V92.1906C69.7557 93.8779 71.1235 95.2458 72.8097 95.2458C74.4958 95.2458 75.8637 93.8779 75.8637 92.1906V81.7778C75.8637 80.9456 75.5256 80.1501 74.9246 79.5743L68.8763 73.7644V55.3916L76.3325 48.4536C76.5534 48.2493 76.7368 48.0082 76.8738 47.7409C76.8738 47.7409 81.9941 37.6363 82.0385 37.3964H83.6824V41.246C83.6824 42.6836 84.8494 43.8482 86.2857 43.8482C87.7222 43.8482 88.8892 42.6836 88.8892 41.246V40.4117C89.3621 41.0626 90.0932 41.5122 90.9578 41.5122C92.3939 41.5122 93.5608 40.3476 93.5608 38.9101V32.4871C93.5606 31.0495 92.3938 29.885 90.9577 29.885ZM72.4539 44.953L65.7822 51.1618H57.0179L50.3417 44.953L46.448 37.3963H76.3477L72.4539 44.953Z" fill="white"/>
</g>
<circle cx="258.398" cy="61.3983" r="61.3983" fill="#CA5A8C"/>
<g clip-path="url(#clip1)">
<path d="M264.601 49.4667C264.294 49.2211 263.905 49.1001 263.513 49.1275H257.534L263.117 42.8947L263.64 42.3153L263.979 41.9054C264.072 41.7743 264.148 41.6317 264.205 41.4814C264.269 41.3194 264.303 41.1468 264.304 40.9726C264.344 40.5604 264.139 40.1629 263.781 39.955C263.317 39.7425 262.808 39.6455 262.297 39.6723H255.287C254.917 39.6471 254.55 39.7577 254.256 39.9833C254.012 40.1905 253.877 40.4975 253.888 40.8171C253.888 41.2977 254.044 41.5803 254.369 41.6934C254.828 41.8234 255.305 41.8807 255.782 41.863H260.305C260.116 42.1268 259.866 42.4377 259.556 42.7958L258.382 44.1243L256.856 45.8203L255.033 47.8413C254.397 48.548 253.987 49.0285 253.789 49.2547C253.34 49.7997 253.396 50.6005 253.916 51.0779C254.291 51.3805 254.765 51.5319 255.245 51.5018H263.499C263.894 51.5328 264.286 51.417 264.601 51.1768C264.841 50.9671 264.976 50.6616 264.969 50.3429C264.981 50.011 264.846 49.6905 264.601 49.4667Z" fill="white"/>
<path d="M277.067 56.5757C276.819 56.3778 276.506 56.2819 276.191 56.3072H271.442L275.894 51.3323L276.318 50.8659L276.586 50.5408C276.662 50.4361 276.724 50.3221 276.77 50.2016C276.823 50.0713 276.852 49.9324 276.855 49.7918C276.89 49.4619 276.73 49.1416 276.445 48.972C276.073 48.8014 275.666 48.7237 275.258 48.7459H269.718C269.423 48.7295 269.132 48.8198 268.898 49.0003C268.702 49.1646 268.593 49.4095 268.601 49.6646C268.601 50.0462 268.728 50.2723 268.983 50.3712C269.35 50.4786 269.731 50.5265 270.113 50.5126H273.675C273.519 50.7246 273.321 50.9648 273.081 51.2616L272.148 52.3216L270.933 53.7349L269.52 55.3461C269.011 55.9114 268.676 56.2978 268.516 56.505C268.183 56.9322 268.226 57.5417 268.615 57.9183C268.908 58.1224 269.263 58.2174 269.619 58.1869H276.205C276.518 58.212 276.83 58.1215 277.081 57.9325C277.268 57.7631 277.371 57.5203 277.364 57.2682C277.37 57.0053 277.262 56.7525 277.067 56.5757Z" fill="white"/>
<path d="M291.878 48.6756C291.57 48.43 291.182 48.309 290.79 48.3364H284.825L290.408 42.1036L290.917 41.4677L291.256 41.0578C291.349 40.9264 291.425 40.784 291.482 40.6338C291.546 40.4718 291.58 40.2992 291.581 40.125C291.62 39.7128 291.416 39.3153 291.058 39.1074C290.576 38.8693 290.041 38.7574 289.503 38.7823H282.578C282.208 38.7571 281.841 38.8677 281.546 39.0933C281.303 39.3005 281.167 39.6076 281.179 39.9271C281.179 40.4077 281.334 40.6903 281.66 40.8034C282.119 40.9332 282.596 40.9905 283.073 40.973H287.595C287.407 41.2368 287.162 41.5477 286.861 41.9058L285.687 43.2343L284.161 44.9303L282.338 46.9513C281.702 47.658 281.292 48.1385 281.094 48.3647C280.91 48.5881 280.805 48.8666 280.797 49.1561C280.778 49.5458 280.934 49.9239 281.221 50.1878C281.594 50.4687 282.056 50.6042 282.522 50.5694H290.775C291.17 50.6003 291.563 50.4846 291.878 50.2444C292.118 50.0347 292.253 49.7292 292.245 49.4105C292.219 49.128 292.088 48.8657 291.878 48.6756Z" fill="white"/>
<path d="M286.583 72.1623C286.221 71.991 285.803 71.9816 285.433 72.1362H285.447C270.127 78.473 252.571 71.1905 246.234 55.8703C243.02 48.0997 243.212 39.3371 246.765 31.7153C247.099 31.0097 246.797 30.1671 246.091 29.8334C245.729 29.6621 245.311 29.6527 244.942 29.8073C228.148 36.706 220.126 55.9127 227.024 72.7066C233.923 89.5006 253.13 97.5224 269.924 90.6238C277.583 87.4774 283.773 81.5565 287.257 74.0442C287.59 73.3386 287.289 72.4961 286.583 72.1623Z" fill="white"/>
</g>
<circle cx="455.398" cy="61.3983" r="61.3983" fill="#69B49F"/>
<g clip-path="url(#clip2)">
<path d="M461.601 49.4667C461.294 49.2211 460.905 49.1001 460.513 49.1275H454.534L460.117 42.8947L460.64 42.3153L460.979 41.9054C461.072 41.7743 461.148 41.6317 461.205 41.4814C461.269 41.3194 461.303 41.1468 461.304 40.9726C461.344 40.5604 461.139 40.1629 460.781 39.955C460.317 39.7425 459.808 39.6455 459.297 39.6723H452.287C451.917 39.6471 451.55 39.7577 451.256 39.9833C451.012 40.1905 450.877 40.4975 450.888 40.8171C450.888 41.2977 451.044 41.5803 451.369 41.6934C451.828 41.8234 452.305 41.8807 452.782 41.863H457.305C457.116 42.1268 456.866 42.4377 456.556 42.7958L455.382 44.1243L453.856 45.8203L452.033 47.8413C451.397 48.548 450.987 49.0285 450.789 49.2547C450.34 49.7997 450.396 50.6005 450.916 51.0779C451.291 51.3805 451.765 51.5319 452.245 51.5018H460.499C460.894 51.5328 461.286 51.417 461.601 51.1768C461.841 50.9671 461.976 50.6616 461.969 50.3429C461.981 50.011 461.846 49.6905 461.601 49.4667Z" fill="white"/>
<path d="M474.067 56.5757C473.819 56.3778 473.506 56.2819 473.191 56.3072H468.442L472.894 51.3323L473.318 50.8659L473.586 50.5408C473.662 50.4361 473.724 50.3221 473.77 50.2016C473.823 50.0713 473.852 49.9324 473.855 49.7918C473.89 49.4619 473.73 49.1416 473.445 48.972C473.073 48.8014 472.666 48.7237 472.258 48.7459H466.718C466.423 48.7295 466.132 48.8198 465.898 49.0003C465.702 49.1646 465.593 49.4095 465.601 49.6646C465.601 50.0462 465.728 50.2723 465.983 50.3712C466.35 50.4786 466.731 50.5265 467.113 50.5126H470.675C470.519 50.7246 470.321 50.9648 470.081 51.2616L469.148 52.3216L467.933 53.7349L466.52 55.3461C466.011 55.9114 465.676 56.2978 465.516 56.505C465.183 56.9322 465.226 57.5417 465.615 57.9183C465.908 58.1224 466.263 58.2174 466.619 58.1869H473.205C473.518 58.212 473.83 58.1215 474.081 57.9325C474.268 57.7631 474.371 57.5203 474.364 57.2682C474.37 57.0053 474.262 56.7525 474.067 56.5757Z" fill="white"/>
<path d="M488.878 48.6756C488.57 48.43 488.182 48.309 487.79 48.3364H481.825L487.408 42.1036L487.917 41.4677L488.256 41.0578C488.349 40.9264 488.425 40.784 488.482 40.6338C488.546 40.4718 488.58 40.2992 488.581 40.125C488.62 39.7128 488.416 39.3153 488.058 39.1074C487.576 38.8693 487.041 38.7574 486.503 38.7823H479.578C479.208 38.7571 478.841 38.8677 478.546 39.0933C478.303 39.3005 478.167 39.6076 478.179 39.9271C478.179 40.4077 478.334 40.6903 478.66 40.8034C479.119 40.9332 479.596 40.9905 480.073 40.973H484.595C484.407 41.2368 484.162 41.5477 483.861 41.9058L482.687 43.2343L481.161 44.9303L479.338 46.9513C478.702 47.658 478.292 48.1385 478.094 48.3647C477.91 48.5881 477.805 48.8666 477.797 49.1561C477.778 49.5458 477.934 49.9239 478.221 50.1878C478.594 50.4687 479.056 50.6042 479.522 50.5694H487.775C488.17 50.6003 488.563 50.4846 488.878 50.2444C489.118 50.0347 489.253 49.7292 489.245 49.4105C489.219 49.128 489.088 48.8657 488.878 48.6756Z" fill="white"/>
<path d="M483.583 72.1623C483.221 71.991 482.803 71.9816 482.433 72.1362H482.447C467.127 78.473 449.571 71.1905 443.234 55.8703C440.02 48.0997 440.212 39.3371 443.765 31.7153C444.099 31.0097 443.797 30.1671 443.091 29.8334C442.729 29.6621 442.311 29.6527 441.942 29.8073C425.148 36.706 417.126 55.9127 424.024 72.7066C430.923 89.5006 450.13 97.5224 466.924 90.6238C474.583 87.4774 480.773 81.5565 484.257 74.0442C484.59 73.3386 484.289 72.4961 483.583 72.1623Z" fill="white"/>
</g>
<defs>
<clipPath id="clip0">
<rect width="67.6955" height="67.6955" fill="white" transform="translate(27.5503 27.5503)"/>
</clipPath>
<clipPath id="clip1">
<rect width="67.6955" height="67.6955" fill="white" transform="translate(224.55 27.5503)"/>
</clipPath>
<clipPath id="clip2">
<rect width="67.6955" height="67.6955" fill="white" transform="translate(421.55 27.5503)"/>
</clipPath>
</defs>
</svg>
