<svg width="123" height="123" viewBox="0 0 123 123" fill="none" xmlns="http://www.w3.org/2000/svg">
<circle cx="61.3983" cy="61.3983" r="61.3983" fill="#5EBAED"/>
<g clip-path="url(#clip0)">
<path d="M89.3368 29.7676H56.8304C56.0202 29.7676 55.3635 30.4243 55.3635 31.2345V42.6649L56.9904 41.6547C57.4044 41.3976 57.8465 41.2241 58.2972 41.1288V32.7015H87.8697V53.8584H58.2974V50.4353L55.3635 52.257V55.3255C55.3635 56.1357 56.0202 56.7925 56.8304 56.7925H89.3368C90.1469 56.7925 90.8037 56.1357 90.8037 55.3255V31.2345C90.8037 30.4243 90.1469 29.7676 89.3368 29.7676Z" fill="white"/>
<path d="M68.0093 37.9102C67.6233 37.4208 66.9138 37.3371 66.4245 37.7228L61.3715 41.7069C61.854 42.0222 62.2772 42.4446 62.6013 42.9665C62.6932 43.1142 62.7729 43.2661 62.8438 43.4201L67.8219 39.495C68.3114 39.1092 68.3952 38.3996 68.0093 37.9102Z" fill="white"/>
<path d="M43.6195 35.995C45.9514 35.995 47.8418 34.1046 47.8418 31.7727C47.8418 29.4407 45.9514 27.5503 43.6195 27.5503C41.2875 27.5503 39.3971 29.4407 39.3971 31.7727C39.3971 34.1046 41.2875 35.995 43.6195 35.995Z" fill="white"/>
<path d="M60.8704 44.0416C60.2768 43.0858 59.021 42.792 58.065 43.3854L53.939 45.9471C53.9218 42.5255 53.9309 44.3413 53.9199 42.1378C53.9066 39.4928 51.7439 37.3408 49.0988 37.3408H47.0945C45.3821 41.7817 45.9337 40.1333 44.4803 43.9028L45.0915 41.2411C45.1338 41.0417 45.1031 40.8339 45.0049 40.6554L44.1767 39.149L44.9117 37.8124C45.0213 37.6131 44.8768 37.3687 44.6492 37.3687H42.6301C42.4027 37.3687 42.258 37.6131 42.3677 37.8124L43.1041 39.1518L42.2744 40.6609C42.1781 40.8361 42.1466 41.0397 42.1855 41.2357L42.715 43.9028C42.4296 43.1625 40.4562 38.0447 40.1848 37.3408H38.1399C35.4949 37.3408 33.3321 39.4927 33.3187 42.1378L33.2435 57.1048C33.2379 58.23 34.1454 59.1467 35.2705 59.1524C35.2741 59.1524 35.2774 59.1524 35.281 59.1524C36.4012 59.1524 37.3124 58.2469 37.3179 57.1253L37.3931 42.1583C37.3931 42.1559 37.3931 42.1535 37.3931 42.1513C37.3963 41.9292 37.5781 41.7512 37.8002 41.7529C38.0224 41.7545 38.2014 41.9351 38.2014 42.1572L38.2023 63.3624C40.0674 63.2831 41.7955 63.9558 43.0919 65.1372V56.8646H44.1473V66.3542C44.8908 67.4474 45.3259 68.7663 45.3259 70.1851C45.3259 71.4778 44.9647 72.6877 44.3384 73.7194C44.9818 73.7225 45.6066 73.8079 46.2025 73.9655C47.0059 73.2686 47.9723 72.7555 49.0369 72.4931C49.0369 35.5592 48.9926 58.3951 48.9926 42.16C48.9926 41.9248 49.1829 41.7341 49.4181 41.7337C49.6533 41.7332 49.8443 41.9231 49.8454 42.1583C49.8525 43.5872 49.875 48.0539 49.8828 49.6089C49.8865 50.3465 50.2887 51.0247 50.9343 51.3815C51.5788 51.7377 52.3669 51.7192 52.9947 51.3294L60.2143 46.8469C61.17 46.2536 61.4639 44.9974 60.8704 44.0416Z" fill="white"/>
<path d="M84.3009 74.7034C86.7692 74.7034 88.7702 72.7024 88.7702 70.234C88.7702 67.7656 86.7692 65.7646 84.3009 65.7646C81.8325 65.7646 79.8315 67.7656 79.8315 70.234C79.8315 72.7024 81.8325 74.7034 84.3009 74.7034Z" fill="white"/>
<path d="M95.1742 81.2056C95.1601 78.4058 92.8709 76.1279 90.0709 76.1279C88.8628 76.1279 79.9453 76.1279 78.8614 76.1279C79.3422 77.0624 79.6155 78.1203 79.6155 79.2417C79.6155 80.4323 79.2975 81.6762 78.6239 82.7827C81.1233 82.8837 83.3134 84.2252 84.5934 86.2067H89.9586V81.2578C89.9586 81.0143 90.1517 80.8146 90.3951 80.8063C90.6385 80.798 90.8449 80.9841 90.8613 81.227C90.8613 81.227 90.8613 81.2272 90.8613 81.2273L90.8864 86.2067H95.1995L95.1742 81.2056Z" fill="white"/>
<path d="M65.9556 79.2417C65.9556 78.1008 66.2383 77.0254 66.7349 76.0791C63.8249 76.0791 60.408 76.0791 56.7833 76.0791C57.2423 76.9966 57.5021 78.0301 57.5021 79.1239C57.5021 80.4092 57.1412 81.6263 56.5146 82.6582C58.5716 82.668 60.4695 83.5227 61.8407 84.9412C63.17 83.6426 64.9821 82.8371 66.9755 82.8264C66.2833 81.7089 65.9556 80.4542 65.9556 79.2417Z" fill="white"/>
<path d="M62.5643 65.7153C60.096 65.7153 58.0948 67.7161 58.0948 70.1847C58.0948 72.6476 60.0922 74.654 62.5643 74.654C65.0127 74.654 67.0336 72.6754 67.0336 70.1847C67.0336 67.7188 65.0365 65.7153 62.5643 65.7153Z" fill="white"/>
<path d="M43.8415 79.1239C43.8415 78.0329 44.1001 77.0014 44.5569 76.0856C44.3642 76.076 45.1746 76.0791 32.7254 76.0791C29.9398 76.0791 27.6362 78.345 27.6221 81.1568L27.5967 86.2069C29.5676 86.2069 29.9642 86.2069 31.9097 86.2069L31.935 81.1786C31.9363 80.9295 32.1387 80.7288 32.3876 80.7294C32.6364 80.7302 32.8377 80.932 32.8377 81.1808V86.2069H38.8836C40.1866 84.124 42.427 82.8161 44.8655 82.7156C44.2036 81.6497 43.8415 80.4196 43.8415 79.1239Z" fill="white"/>
<path d="M38.4961 65.7153C36.0278 65.7153 34.0267 67.7163 34.0267 70.1847C34.0267 72.6418 36.0161 74.654 38.4961 74.654C40.9469 74.654 42.9656 72.6688 42.9656 70.1847C42.9656 67.7162 40.9645 65.7153 38.4961 65.7153Z" fill="white"/>
<path d="M83.4166 90.1958C83.4027 87.3956 81.1133 85.1178 78.3134 85.1178C78.0164 85.1178 67.3434 85.1178 67.0078 85.1178C64.208 85.1178 61.7719 87.3955 61.7577 90.1955L61.7214 90.0777C61.7075 87.2889 59.4286 85 56.6182 85C53.373 85 48.7122 85 45.3127 85C42.5128 85 40.0767 87.2777 40.0626 90.0777L40.0372 95.2455H44.3502L44.3755 90.0994C44.3766 89.8849 44.5509 89.712 44.7653 89.7125C44.9796 89.713 45.1529 89.887 45.1529 90.1013V95.2457C47.6811 95.2457 54.2076 95.2457 56.5755 95.2457V90.1013C56.5755 89.8718 56.7612 89.6857 56.9908 89.685C57.2202 89.6845 57.4071 89.8697 57.4083 90.0992L57.4336 95.2455C58.3153 95.2455 65.1337 95.2455 66.0454 95.2455L66.0707 90.2172C66.0707 90.2172 66.0707 90.217 66.0707 90.2169C66.0719 90.0026 66.2463 89.8298 66.4606 89.8303C66.6749 89.8308 66.8481 90.0048 66.8481 90.2192V95.2455C69.3763 95.2455 75.9028 95.2455 78.2707 95.2455V90.2192C78.2707 89.9896 78.4564 89.8035 78.686 89.8028C78.9154 89.8023 79.1023 89.9875 79.1035 90.217L79.1288 95.2454H83.4418L83.4166 90.1958Z" fill="white"/>
<path d="M50.8116 83.6276C53.3088 83.6276 55.3332 81.6032 55.3332 79.106C55.3332 76.6089 53.3088 74.5845 50.8116 74.5845C48.3144 74.5845 46.29 76.6089 46.29 79.106C46.29 81.6032 48.3144 83.6276 50.8116 83.6276Z" fill="white"/>
<path d="M72.7782 83.7453C75.2754 83.7453 77.2998 81.7209 77.2998 79.2237C77.2998 76.7265 75.2754 74.7021 72.7782 74.7021C70.281 74.7021 68.2567 76.7265 68.2567 79.2237C68.2567 81.7209 70.281 83.7453 72.7782 83.7453Z" fill="white"/>
</g>
<defs>
<clipPath id="clip0">
<rect width="67.6955" height="67.6955" fill="white" transform="translate(27.5503 27.5503)"/>
</clipPath>
</defs>
</svg>
