<svg width="320" height="123" viewBox="0 0 320 123" fill="none" xmlns="http://www.w3.org/2000/svg">
<circle cx="61.3983" cy="61.3983" r="61.3983" fill="#CA5A8C"/>
<g clip-path="url(#clip0)">
<path d="M67.6011 49.4667C67.2937 49.2211 66.9052 49.1001 66.5128 49.1275H60.5345L66.1171 42.8947L66.64 42.3153L66.9792 41.9054C67.0723 41.7743 67.1483 41.6317 67.2053 41.4814C67.2695 41.3194 67.3029 41.1468 67.3043 40.9726C67.3437 40.5604 67.1394 40.1629 66.7813 39.955C66.3167 39.7425 65.8076 39.6455 65.2974 39.6723H58.2873C57.917 39.6471 57.5502 39.7577 57.2556 39.9833C57.0121 40.1905 56.8766 40.4975 56.8881 40.8171C56.8881 41.2977 57.0436 41.5803 57.3686 41.6934C57.8279 41.8234 58.3049 41.8807 58.7819 41.863H63.3046C63.1161 42.1268 62.8664 42.4377 62.5555 42.7958L61.3825 44.1243L59.8561 45.8203L58.0329 47.8413C57.3969 48.548 56.987 49.0285 56.7892 49.2547C56.3404 49.7997 56.3963 50.6005 56.9164 51.0779C57.2905 51.3805 57.7645 51.5319 58.2449 51.5018H66.4987C66.8935 51.5328 67.2861 51.417 67.6011 51.1768C67.8412 50.9671 67.9758 50.6616 67.9685 50.3429C67.9807 50.011 67.8463 49.6905 67.6011 49.4667Z" fill="white"/>
<path d="M80.0668 56.5757C79.8194 56.3778 79.5062 56.2819 79.1905 56.3072H74.4418L78.8937 51.3323L79.3177 50.8659L79.5862 50.5408C79.6617 50.4361 79.7235 50.3221 79.77 50.2016C79.8228 50.0713 79.8516 49.9324 79.8548 49.7918C79.8903 49.4619 79.7301 49.1416 79.4449 48.972C79.0734 48.8014 78.666 48.7237 78.2577 48.7459H72.7175C72.4227 48.7295 72.1315 48.8198 71.8978 49.0003C71.7024 49.1646 71.593 49.4095 71.601 49.6646C71.601 50.0462 71.7282 50.2723 71.9826 50.3712C72.3495 50.4786 72.7313 50.5265 73.1132 50.5126H76.6748C76.5193 50.7246 76.3215 50.9648 76.0812 51.2616L75.1484 52.3216L73.933 53.7349L72.5197 55.3461C72.0109 55.9114 71.6764 56.2978 71.5162 56.505C71.1832 56.9322 71.2259 57.5417 71.6151 57.9183C71.9079 58.1224 72.263 58.2174 72.6186 58.1869H79.2047C79.5181 58.212 79.8297 58.1215 80.0809 57.9325C80.2678 57.7631 80.371 57.5203 80.3636 57.2682C80.3701 57.0053 80.2618 56.7525 80.0668 56.5757Z" fill="white"/>
<path d="M94.8778 48.6756C94.5704 48.43 94.1819 48.309 93.7896 48.3364H87.8253L93.408 42.1036L93.9168 41.4677L94.256 41.0578C94.3487 40.9264 94.4247 40.784 94.4821 40.6338C94.5462 40.4718 94.5796 40.2992 94.581 40.125C94.6204 39.7128 94.4162 39.3153 94.0581 39.1074C93.5758 38.8693 93.0408 38.7574 92.5034 38.7823H85.5782C85.2079 38.7571 84.8411 38.8677 84.5464 39.0933C84.303 39.3005 84.1675 39.6076 84.179 39.9271C84.179 40.4077 84.3344 40.6903 84.6595 40.8034C85.1188 40.9332 85.5958 40.9905 86.0728 40.973H90.5955C90.407 41.2368 90.1621 41.5477 89.8605 41.9058L88.6875 43.2343L87.1611 44.9303L85.3379 46.9513C84.7019 47.658 84.292 48.1385 84.0942 48.3647C83.9099 48.5881 83.8053 48.8666 83.7974 49.1561C83.7785 49.5458 83.9339 49.9239 84.2214 50.1878C84.5941 50.4687 85.0563 50.6042 85.5216 50.5694H93.7754C94.1703 50.6003 94.5628 50.4846 94.8778 50.2444C95.1179 50.0347 95.2525 49.7292 95.2453 49.4105C95.2193 49.128 95.0882 48.8657 94.8778 48.6756Z" fill="white"/>
<path d="M89.583 72.1623C89.2208 71.991 88.8028 71.9816 88.4333 72.1362H88.4474C73.1272 78.473 55.5708 71.1905 49.234 55.8703C46.0199 48.0997 46.2125 39.3371 49.7648 31.7153C50.0986 31.0097 49.797 30.1671 49.0914 29.8334C48.7292 29.6621 48.3112 29.6527 47.9417 29.8073C31.1477 36.706 23.1259 55.9127 30.0245 72.7066C36.9231 89.5006 56.1297 97.5224 72.9239 90.6238C80.5833 87.4774 86.7733 81.5565 90.2566 74.0442C90.5902 73.3386 90.2886 72.4961 89.583 72.1623Z" fill="white"/>
</g>
<circle cx="258.398" cy="61.3983" r="61.3983" fill="#69B49F"/>
<g clip-path="url(#clip1)">
<path d="M264.601 49.4667C264.294 49.2211 263.905 49.1001 263.513 49.1275H257.534L263.117 42.8947L263.64 42.3153L263.979 41.9054C264.072 41.7743 264.148 41.6317 264.205 41.4814C264.269 41.3194 264.303 41.1468 264.304 40.9726C264.344 40.5604 264.139 40.1629 263.781 39.955C263.317 39.7425 262.808 39.6455 262.297 39.6723H255.287C254.917 39.6471 254.55 39.7577 254.256 39.9833C254.012 40.1905 253.877 40.4975 253.888 40.8171C253.888 41.2977 254.044 41.5803 254.369 41.6934C254.828 41.8234 255.305 41.8807 255.782 41.863H260.305C260.116 42.1268 259.866 42.4377 259.556 42.7958L258.382 44.1243L256.856 45.8203L255.033 47.8413C254.397 48.548 253.987 49.0285 253.789 49.2547C253.34 49.7997 253.396 50.6005 253.916 51.0779C254.291 51.3805 254.765 51.5319 255.245 51.5018H263.499C263.894 51.5328 264.286 51.417 264.601 51.1768C264.841 50.9671 264.976 50.6616 264.969 50.3429C264.981 50.011 264.846 49.6905 264.601 49.4667Z" fill="white"/>
<path d="M277.067 56.5757C276.819 56.3778 276.506 56.2819 276.191 56.3072H271.442L275.894 51.3323L276.318 50.8659L276.586 50.5408C276.662 50.4361 276.724 50.3221 276.77 50.2016C276.823 50.0713 276.852 49.9324 276.855 49.7918C276.89 49.4619 276.73 49.1416 276.445 48.972C276.073 48.8014 275.666 48.7237 275.258 48.7459H269.718C269.423 48.7295 269.132 48.8198 268.898 49.0003C268.702 49.1646 268.593 49.4095 268.601 49.6646C268.601 50.0462 268.728 50.2723 268.983 50.3712C269.35 50.4786 269.731 50.5265 270.113 50.5126H273.675C273.519 50.7246 273.321 50.9648 273.081 51.2616L272.148 52.3216L270.933 53.7349L269.52 55.3461C269.011 55.9114 268.676 56.2978 268.516 56.505C268.183 56.9322 268.226 57.5417 268.615 57.9183C268.908 58.1224 269.263 58.2174 269.619 58.1869H276.205C276.518 58.212 276.83 58.1215 277.081 57.9325C277.268 57.7631 277.371 57.5203 277.364 57.2682C277.37 57.0053 277.262 56.7525 277.067 56.5757Z" fill="white"/>
<path d="M291.878 48.6756C291.57 48.43 291.182 48.309 290.79 48.3364H284.825L290.408 42.1036L290.917 41.4677L291.256 41.0578C291.349 40.9264 291.425 40.784 291.482 40.6338C291.546 40.4718 291.58 40.2992 291.581 40.125C291.62 39.7128 291.416 39.3153 291.058 39.1074C290.576 38.8693 290.041 38.7574 289.503 38.7823H282.578C282.208 38.7571 281.841 38.8677 281.546 39.0933C281.303 39.3005 281.167 39.6076 281.179 39.9271C281.179 40.4077 281.334 40.6903 281.66 40.8034C282.119 40.9332 282.596 40.9905 283.073 40.973H287.595C287.407 41.2368 287.162 41.5477 286.861 41.9058L285.687 43.2343L284.161 44.9303L282.338 46.9513C281.702 47.658 281.292 48.1385 281.094 48.3647C280.91 48.5881 280.805 48.8666 280.797 49.1561C280.778 49.5458 280.934 49.9239 281.221 50.1878C281.594 50.4687 282.056 50.6042 282.522 50.5694H290.775C291.17 50.6003 291.563 50.4846 291.878 50.2444C292.118 50.0347 292.253 49.7292 292.245 49.4105C292.219 49.128 292.088 48.8657 291.878 48.6756Z" fill="white"/>
<path d="M286.583 72.1623C286.221 71.991 285.803 71.9816 285.433 72.1362H285.447C270.127 78.473 252.571 71.1905 246.234 55.8703C243.02 48.0997 243.212 39.3371 246.765 31.7153C247.099 31.0097 246.797 30.1671 246.091 29.8334C245.729 29.6621 245.311 29.6527 244.942 29.8073C228.148 36.706 220.126 55.9127 227.024 72.7066C233.923 89.5006 253.13 97.5224 269.924 90.6238C277.583 87.4774 283.773 81.5565 287.257 74.0442C287.59 73.3386 287.289 72.4961 286.583 72.1623Z" fill="white"/>
</g>
<defs>
<clipPath id="clip0">
<rect width="67.6955" height="67.6955" fill="white" transform="translate(27.5503 27.5503)"/>
</clipPath>
<clipPath id="clip1">
<rect width="67.6955" height="67.6955" fill="white" transform="translate(224.55 27.5503)"/>
</clipPath>
</defs>
</svg>
