<svg width="2046" height="866" viewBox="0 0 2046 866" fill="none" xmlns="http://www.w3.org/2000/svg">
<path d="M748 613H716V644H748V613Z" fill="#69B49F"/>
<path d="M748 676H716V707H748V676Z" fill="#69B49F"/>
<path d="M779 644H748V676H779V644Z" fill="#69B49F"/>
<path d="M716 644H685V676H716V644Z" fill="#69B49F"/>
<path d="M222 659H190V691H222V659Z" fill="#69B49F"/>
<path d="M222 722H190V754H222V722Z" fill="#69B49F"/>
<path d="M253 691H222V722H253V691Z" fill="#69B49F"/>
<path d="M190 691H158V722H190V691Z" fill="#69B49F"/>
<path d="M126 486H95V517H126V486Z" fill="#69B49F"/>
<path d="M126 549H95V580H126V549Z" fill="#69B49F"/>
<path d="M158 517H126V549H158V517Z" fill="#69B49F"/>
<path d="M95 517H64V549H95V517Z" fill="#69B49F"/>
<path d="M764 59H732V90H764V59Z" fill="#69B49F"/>
<path d="M764 122H732V154H764V122Z" fill="#69B49F"/>
<path d="M795 90H764V122H795V90Z" fill="#69B49F"/>
<path d="M732 90H700V122H732V90Z" fill="#69B49F"/>
<path d="M111 59H79V91H111V59Z" fill="#69B49F"/>
<path d="M111 123H79V154H111V123Z" fill="#69B49F"/>
<path d="M142 91H111V123H142V91Z" fill="#69B49F"/>
<path d="M79 91H47V123H79V91Z" fill="#69B49F"/>
<path d="M1928 613H1896V644H1928V613Z" fill="#CA5A8C"/>
<path d="M1928 676H1896V707H1928V676Z" fill="#CA5A8C"/>
<path d="M1959 644H1928V676H1959V644Z" fill="#CA5A8C"/>
<path d="M1896 644H1865V676H1896V644Z" fill="#CA5A8C"/>
<path d="M1402 659H1370V691H1402V659Z" fill="#CA5A8C"/>
<path d="M1402 722H1370V754H1402V722Z" fill="#CA5A8C"/>
<path d="M1433 691H1402V722H1433V691Z" fill="#CA5A8C"/>
<path d="M1370 691H1338V722H1370V691Z" fill="#CA5A8C"/>
<path d="M1306 486H1275V517H1306V486Z" fill="#CA5A8C"/>
<path d="M1306 549H1275V580H1306V549Z" fill="#CA5A8C"/>
<path d="M1338 517H1306V549H1338V517Z" fill="#CA5A8C"/>
<path d="M1275 517H1244V549H1275V517Z" fill="#CA5A8C"/>
<path d="M1944 59H1912V90H1944V59Z" fill="#CA5A8C"/>
<path d="M1944 122H1912V154H1944V122Z" fill="#CA5A8C"/>
<path d="M1975 90H1944V122H1975V90Z" fill="#CA5A8C"/>
<path d="M1912 90H1880V122H1912V90Z" fill="#CA5A8C"/>
<path d="M1291 59H1259V91H1291V59Z" fill="#CA5A8C"/>
<path d="M1291 123H1259V154H1291V123Z" fill="#CA5A8C"/>
<path d="M1322 91H1291V123H1322V91Z" fill="#CA5A8C"/>
<path d="M1259 91H1227V123H1259V91Z" fill="#CA5A8C"/>
</svg>
