<svg width="531" height="345" viewBox="0 0 531 345" fill="none" xmlns="http://www.w3.org/2000/svg">
<circle cx="265.5" cy="172.5" r="138.5" fill="#32323E"/>
<circle cx="265.5" cy="172.5" r="123.661" fill="#393945"/>
<circle cx="265.5" cy="172.5" r="108.821" fill="#32323E"/>
<circle cx="265.5" cy="172.5" r="93.9821" fill="#393945"/>
<circle cx="265.5" cy="172.5" r="79.1429" fill="#32323E"/>
<circle cx="265.5" cy="172.5" r="64.3036" fill="#393945"/>
<circle cx="265.5" cy="172.5" r="49.4643" fill="#32323E"/>
<circle cx="265.5" cy="172.5" r="34.625" fill="#393945"/>
<circle cx="265.5" cy="172.5" r="19.7857" fill="#32323E"/>
<path d="M253.367 15C253.277 15 253.222 14.955 253.202 14.865L250.817 4.665L250.802 4.605C250.802 4.535 250.847 4.5 250.937 4.5H252.137C252.237 4.5 252.292 4.545 252.302 4.635L253.907 11.895C253.917 11.925 253.927 11.94 253.937 11.94C253.947 11.94 253.957 11.925 253.967 11.895L255.422 4.635C255.442 4.545 255.497 4.5 255.587 4.5H256.682C256.782 4.5 256.837 4.545 256.847 4.635L258.407 11.895C258.417 11.925 258.427 11.94 258.437 11.94C258.447 11.94 258.457 11.925 258.467 11.895L259.997 4.635C260.017 4.545 260.072 4.5 260.162 4.5H261.317C261.367 4.5 261.402 4.515 261.422 4.545C261.452 4.575 261.462 4.615 261.452 4.665L259.157 14.865C259.147 14.955 259.092 15 258.992 15H257.867C257.777 15 257.722 14.955 257.702 14.865L256.157 7.44C256.147 7.41 256.137 7.395 256.127 7.395C256.117 7.395 256.107 7.41 256.097 7.44L254.612 14.865C254.602 14.955 254.547 15 254.447 15H253.367ZM264.795 15.12C264.015 15.12 263.375 14.92 262.875 14.52C262.375 14.11 262.075 13.555 261.975 12.855C261.895 12.355 261.855 11.795 261.855 11.175C261.855 10.545 261.895 9.99 261.975 9.51C262.075 8.82 262.375 8.27 262.875 7.86C263.375 7.45 264.015 7.245 264.795 7.245C265.565 7.245 266.2 7.45 266.7 7.86C267.2 8.27 267.5 8.815 267.6 9.495C267.68 9.925 267.72 10.485 267.72 11.175C267.72 11.865 267.68 12.425 267.6 12.855C267.5 13.555 267.2 14.11 266.7 14.52C266.21 14.92 265.575 15.12 264.795 15.12ZM264.795 13.875C265.165 13.875 265.475 13.76 265.725 13.53C265.985 13.3 266.145 12.995 266.205 12.615C266.255 12.165 266.28 11.685 266.28 11.175C266.28 10.655 266.255 10.18 266.205 9.75C266.145 9.37 265.985 9.065 265.725 8.835C265.475 8.605 265.16 8.49 264.78 8.49C264.41 8.49 264.095 8.605 263.835 8.835C263.585 9.065 263.43 9.37 263.37 9.75C263.33 10.1 263.31 10.575 263.31 11.175C263.31 11.785 263.33 12.265 263.37 12.615C263.43 12.995 263.585 13.3 263.835 13.53C264.095 13.76 264.415 13.875 264.795 13.875ZM272.554 7.29C272.854 7.29 273.109 7.35 273.319 7.47C273.389 7.5 273.414 7.56 273.394 7.65L273.169 8.79C273.159 8.89 273.099 8.92 272.989 8.88C272.839 8.83 272.674 8.805 272.494 8.805C272.364 8.805 272.269 8.81 272.209 8.82C271.819 8.85 271.494 9.03 271.234 9.36C270.974 9.68 270.844 10.065 270.844 10.515V14.85C270.844 14.95 270.794 15 270.694 15H269.554C269.454 15 269.404 14.95 269.404 14.85V7.515C269.404 7.415 269.454 7.365 269.554 7.365H270.694C270.794 7.365 270.844 7.415 270.844 7.515V8.475C270.844 8.505 270.849 8.525 270.859 8.535C270.879 8.535 270.894 8.525 270.904 8.505C271.264 7.695 271.814 7.29 272.554 7.29ZM274.651 15C274.551 15 274.501 14.95 274.501 14.85V4.65C274.501 4.55 274.551 4.5 274.651 4.5H275.791C275.891 4.5 275.941 4.55 275.941 4.65V10.38C275.941 10.4 275.951 10.415 275.971 10.425C275.991 10.435 276.006 10.43 276.016 10.41L278.356 7.455C278.406 7.395 278.471 7.365 278.551 7.365H279.811C279.871 7.365 279.911 7.385 279.931 7.425C279.951 7.455 279.941 7.495 279.901 7.545L278.161 9.81C278.141 9.85 278.136 9.88 278.146 9.9L280.186 14.82L280.201 14.88C280.201 14.96 280.156 15 280.066 15H278.866C278.786 15 278.731 14.96 278.701 14.88L277.201 10.95C277.181 10.89 277.156 10.885 277.126 10.935L275.971 12.375C275.951 12.415 275.941 12.44 275.941 12.45V14.85C275.941 14.95 275.891 15 275.791 15H274.651Z" fill="#ACADBF"/>
<path d="M244.735 338C244.635 338 244.585 337.95 244.585 337.85V327.65C244.585 327.55 244.635 327.5 244.735 327.5H245.875C245.975 327.5 246.025 327.55 246.025 327.65V336.695C246.025 336.735 246.045 336.755 246.085 336.755H250.345C250.445 336.755 250.495 336.805 250.495 336.905V337.85C250.495 337.95 250.445 338 250.345 338H244.735ZM254.52 336.875C254.86 336.875 255.145 336.795 255.375 336.635C255.615 336.465 255.795 336.235 255.915 335.945C255.945 335.855 256.005 335.82 256.095 335.84L257.115 336.065C257.215 336.095 257.25 336.155 257.22 336.245C257.03 336.835 256.7 337.295 256.23 337.625C255.76 337.955 255.185 338.12 254.505 338.12C253.725 338.12 253.095 337.925 252.615 337.535C252.135 337.145 251.83 336.61 251.7 335.93C251.65 335.65 251.615 335.355 251.595 335.045C251.585 334.725 251.58 334.305 251.58 333.785C251.58 333.275 251.605 332.87 251.655 332.57C251.745 331.87 252.04 331.31 252.54 330.89C253.04 330.46 253.67 330.245 254.43 330.245C255.26 330.245 255.93 330.48 256.44 330.95C256.95 331.42 257.235 332.04 257.295 332.81C257.325 333.15 257.34 333.775 257.34 334.685C257.34 334.785 257.29 334.835 257.19 334.835H253.08C253.04 334.835 253.02 334.855 253.02 334.895C253.02 335.175 253.035 335.42 253.065 335.63C253.115 336 253.27 336.3 253.53 336.53C253.79 336.76 254.12 336.875 254.52 336.875ZM254.445 331.49C254.065 331.49 253.75 331.605 253.5 331.835C253.26 332.065 253.115 332.365 253.065 332.735C253.035 333.005 253.02 333.3 253.02 333.62C253.02 333.66 253.04 333.68 253.08 333.68H255.84C255.88 333.68 255.9 333.66 255.9 333.62C255.88 333.22 255.86 332.93 255.84 332.75C255.79 332.38 255.64 332.08 255.39 331.85C255.14 331.61 254.825 331.49 254.445 331.49ZM259.748 329.165C259.468 329.165 259.238 329.075 259.058 328.895C258.878 328.715 258.788 328.485 258.788 328.205C258.788 327.915 258.878 327.685 259.058 327.515C259.238 327.335 259.468 327.245 259.748 327.245C260.028 327.245 260.258 327.335 260.438 327.515C260.618 327.695 260.708 327.925 260.708 328.205C260.708 328.485 260.613 328.715 260.423 328.895C260.243 329.075 260.018 329.165 259.748 329.165ZM259.163 338C259.063 338 259.013 337.95 259.013 337.85V330.515C259.013 330.415 259.063 330.365 259.163 330.365H260.303C260.403 330.365 260.453 330.415 260.453 330.515V337.85C260.453 337.95 260.403 338 260.303 338H259.163ZM264.839 338.09C264.019 338.09 263.359 337.9 262.859 337.52C262.369 337.14 262.124 336.65 262.124 336.05V335.9C262.124 335.8 262.174 335.75 262.274 335.75H263.339C263.439 335.75 263.489 335.8 263.489 335.9V335.99C263.489 336.26 263.619 336.495 263.879 336.695C264.139 336.895 264.459 336.995 264.839 336.995C265.219 336.995 265.524 336.9 265.754 336.71C265.994 336.52 266.114 336.285 266.114 336.005C266.114 335.785 266.044 335.605 265.904 335.465C265.774 335.325 265.609 335.215 265.409 335.135C265.219 335.045 264.934 334.935 264.554 334.805C264.084 334.655 263.684 334.5 263.354 334.34C263.034 334.17 262.759 333.935 262.529 333.635C262.299 333.325 262.184 332.935 262.184 332.465C262.184 331.795 262.419 331.265 262.889 330.875C263.369 330.485 264.004 330.29 264.794 330.29C265.594 330.29 266.234 330.49 266.714 330.89C267.204 331.29 267.449 331.815 267.449 332.465V332.495C267.449 332.595 267.399 332.645 267.299 332.645H266.249C266.149 332.645 266.099 332.595 266.099 332.495V332.435C266.099 332.145 265.979 331.905 265.739 331.715C265.499 331.525 265.184 331.43 264.794 331.43C264.424 331.43 264.124 331.52 263.894 331.7C263.674 331.88 263.564 332.11 263.564 332.39C263.564 332.6 263.629 332.775 263.759 332.915C263.889 333.045 264.049 333.155 264.239 333.245C264.439 333.335 264.729 333.445 265.109 333.575C265.609 333.745 266.019 333.91 266.339 334.07C266.669 334.23 266.954 334.46 267.194 334.76C267.434 335.06 267.554 335.445 267.554 335.915C267.554 336.585 267.309 337.115 266.819 337.505C266.329 337.895 265.669 338.09 264.839 338.09ZM272.962 330.515C272.962 330.415 273.012 330.365 273.112 330.365H274.252C274.352 330.365 274.402 330.415 274.402 330.515V337.85C274.402 337.95 274.352 338 274.252 338H273.112C273.012 338 272.962 337.95 272.962 337.85V337.385C272.962 337.365 272.952 337.35 272.932 337.34C272.922 337.33 272.907 337.335 272.887 337.355C272.537 337.855 271.987 338.105 271.237 338.105C270.557 338.105 269.992 337.905 269.542 337.505C269.102 337.105 268.882 336.525 268.882 335.765V330.515C268.882 330.415 268.932 330.365 269.032 330.365H270.157C270.257 330.365 270.307 330.415 270.307 330.515V335.375C270.307 335.845 270.417 336.21 270.637 336.47C270.867 336.73 271.192 336.86 271.612 336.86C272.022 336.86 272.347 336.725 272.587 336.455C272.837 336.175 272.962 335.8 272.962 335.33V330.515ZM279.402 330.29C279.702 330.29 279.957 330.35 280.167 330.47C280.237 330.5 280.262 330.56 280.242 330.65L280.017 331.79C280.007 331.89 279.947 331.92 279.837 331.88C279.687 331.83 279.522 331.805 279.342 331.805C279.212 331.805 279.117 331.81 279.057 331.82C278.667 331.85 278.342 332.03 278.082 332.36C277.822 332.68 277.692 333.065 277.692 333.515V337.85C277.692 337.95 277.642 338 277.542 338H276.402C276.302 338 276.252 337.95 276.252 337.85V330.515C276.252 330.415 276.302 330.365 276.402 330.365H277.542C277.642 330.365 277.692 330.415 277.692 330.515V331.475C277.692 331.505 277.697 331.525 277.707 331.535C277.727 331.535 277.742 331.525 277.752 331.505C278.112 330.695 278.662 330.29 279.402 330.29ZM284.022 336.875C284.362 336.875 284.647 336.795 284.877 336.635C285.117 336.465 285.297 336.235 285.417 335.945C285.447 335.855 285.507 335.82 285.597 335.84L286.617 336.065C286.717 336.095 286.752 336.155 286.722 336.245C286.532 336.835 286.202 337.295 285.732 337.625C285.262 337.955 284.687 338.12 284.007 338.12C283.227 338.12 282.597 337.925 282.117 337.535C281.637 337.145 281.332 336.61 281.202 335.93C281.152 335.65 281.117 335.355 281.097 335.045C281.087 334.725 281.082 334.305 281.082 333.785C281.082 333.275 281.107 332.87 281.157 332.57C281.247 331.87 281.542 331.31 282.042 330.89C282.542 330.46 283.172 330.245 283.932 330.245C284.762 330.245 285.432 330.48 285.942 330.95C286.452 331.42 286.737 332.04 286.797 332.81C286.827 333.15 286.842 333.775 286.842 334.685C286.842 334.785 286.792 334.835 286.692 334.835H282.582C282.542 334.835 282.522 334.855 282.522 334.895C282.522 335.175 282.537 335.42 282.567 335.63C282.617 336 282.772 336.3 283.032 336.53C283.292 336.76 283.622 336.875 284.022 336.875ZM283.947 331.49C283.567 331.49 283.252 331.605 283.002 331.835C282.762 332.065 282.617 332.365 282.567 332.735C282.537 333.005 282.522 333.3 282.522 333.62C282.522 333.66 282.542 333.68 282.582 333.68H285.342C285.382 333.68 285.402 333.66 285.402 333.62C285.382 333.22 285.362 332.93 285.342 332.75C285.292 332.38 285.142 332.08 284.892 331.85C284.642 331.61 284.327 331.49 283.947 331.49Z" fill="#ACADBF"/>
<path d="M422.15 177C422.07 177 422.015 176.96 421.985 176.88L420.245 172.41C420.235 172.38 420.215 172.365 420.185 172.365H418.58C418.54 172.365 418.52 172.385 418.52 172.425V176.85C418.52 176.95 418.47 177 418.37 177H417.23C417.13 177 417.08 176.95 417.08 176.85V166.65C417.08 166.55 417.13 166.5 417.23 166.5H420.59C421.43 166.5 422.105 166.775 422.615 167.325C423.125 167.875 423.38 168.595 423.38 169.485C423.38 170.155 423.225 170.73 422.915 171.21C422.605 171.69 422.18 172.02 421.64 172.2C421.61 172.21 421.6 172.235 421.61 172.275L423.44 176.82L423.455 176.88C423.455 176.96 423.41 177 423.32 177H422.15ZM418.58 167.745C418.54 167.745 418.52 167.765 418.52 167.805V171.165C418.52 171.205 418.54 171.225 418.58 171.225H420.395C420.855 171.225 421.225 171.07 421.505 170.76C421.795 170.44 421.94 170.02 421.94 169.5C421.94 168.97 421.8 168.545 421.52 168.225C421.24 167.905 420.865 167.745 420.395 167.745H418.58ZM427.659 175.875C427.999 175.875 428.284 175.795 428.514 175.635C428.754 175.465 428.934 175.235 429.054 174.945C429.084 174.855 429.144 174.82 429.234 174.84L430.254 175.065C430.354 175.095 430.389 175.155 430.359 175.245C430.169 175.835 429.839 176.295 429.369 176.625C428.899 176.955 428.324 177.12 427.644 177.12C426.864 177.12 426.234 176.925 425.754 176.535C425.274 176.145 424.969 175.61 424.839 174.93C424.789 174.65 424.754 174.355 424.734 174.045C424.724 173.725 424.719 173.305 424.719 172.785C424.719 172.275 424.744 171.87 424.794 171.57C424.884 170.87 425.179 170.31 425.679 169.89C426.179 169.46 426.809 169.245 427.569 169.245C428.399 169.245 429.069 169.48 429.579 169.95C430.089 170.42 430.374 171.04 430.434 171.81C430.464 172.15 430.479 172.775 430.479 173.685C430.479 173.785 430.429 173.835 430.329 173.835H426.219C426.179 173.835 426.159 173.855 426.159 173.895C426.159 174.175 426.174 174.42 426.204 174.63C426.254 175 426.409 175.3 426.669 175.53C426.929 175.76 427.259 175.875 427.659 175.875ZM427.584 170.49C427.204 170.49 426.889 170.605 426.639 170.835C426.399 171.065 426.254 171.365 426.204 171.735C426.174 172.005 426.159 172.3 426.159 172.62C426.159 172.66 426.179 172.68 426.219 172.68H428.979C429.019 172.68 429.039 172.66 429.039 172.62C429.019 172.22 428.999 171.93 428.979 171.75C428.929 171.38 428.779 171.08 428.529 170.85C428.279 170.61 427.964 170.49 427.584 170.49ZM432.167 177C432.067 177 432.017 176.95 432.017 176.85V166.65C432.017 166.55 432.067 166.5 432.167 166.5H433.307C433.407 166.5 433.457 166.55 433.457 166.65V176.85C433.457 176.95 433.407 177 433.307 177H432.167ZM437.865 169.245C438.695 169.245 439.36 169.48 439.86 169.95C440.36 170.41 440.61 171.015 440.61 171.765V176.85C440.61 176.95 440.56 177 440.46 177H439.32C439.22 177 439.17 176.95 439.17 176.85V176.415C439.17 176.395 439.16 176.385 439.14 176.385C439.13 176.375 439.115 176.38 439.095 176.4C438.645 176.88 438.02 177.12 437.22 177.12C436.57 177.12 436.015 176.945 435.555 176.595C435.095 176.235 434.865 175.66 434.865 174.87C434.865 174.05 435.13 173.43 435.66 173.01C436.2 172.58 436.93 172.365 437.85 172.365H439.11C439.15 172.365 439.17 172.345 439.17 172.305V171.885C439.17 171.455 439.055 171.115 438.825 170.865C438.605 170.615 438.285 170.49 437.865 170.49C437.535 170.49 437.26 170.575 437.04 170.745C436.83 170.905 436.7 171.125 436.65 171.405C436.64 171.495 436.585 171.54 436.485 171.54L435.255 171.465C435.215 171.465 435.18 171.455 435.15 171.435C435.12 171.405 435.11 171.37 435.12 171.33C435.18 170.71 435.46 170.21 435.96 169.83C436.47 169.44 437.105 169.245 437.865 169.245ZM437.535 175.89C437.975 175.89 438.355 175.765 438.675 175.515C439.005 175.265 439.17 174.93 439.17 174.51V173.55C439.17 173.51 439.15 173.49 439.11 173.49H437.955C437.465 173.49 437.07 173.6 436.77 173.82C436.48 174.04 436.335 174.36 436.335 174.78C436.335 175.15 436.445 175.43 436.665 175.62C436.885 175.8 437.175 175.89 437.535 175.89ZM441.851 177C441.791 177 441.751 176.985 441.731 176.955C441.711 176.915 441.716 176.87 441.746 176.82L443.876 173.235C443.896 173.205 443.896 173.175 443.876 173.145L441.746 169.545C441.726 169.505 441.716 169.475 441.716 169.455C441.716 169.395 441.761 169.365 441.851 169.365H443.081C443.151 169.365 443.211 169.4 443.261 169.47L444.686 171.915C444.696 171.925 444.711 171.93 444.731 171.93C444.751 171.93 444.766 171.925 444.776 171.915L446.201 169.47C446.251 169.4 446.311 169.365 446.381 169.365H447.656C447.716 169.365 447.756 169.385 447.776 169.425C447.796 169.455 447.791 169.495 447.761 169.545L445.631 173.145C445.621 173.175 445.621 173.205 445.631 173.235L447.761 176.82C447.781 176.86 447.791 176.89 447.791 176.91C447.791 176.97 447.746 177 447.656 177H446.426C446.356 177 446.296 176.965 446.246 176.895L444.821 174.435C444.811 174.415 444.796 174.405 444.776 174.405C444.756 174.405 444.741 174.415 444.731 174.435L443.306 176.895C443.256 176.965 443.196 177 443.126 177H441.851Z" fill="#ACADBF"/>
<path d="M71.4843 167.595C71.4843 167.695 71.4343 167.745 71.3343 167.745H66.9843C66.9443 167.745 66.9243 167.765 66.9243 167.805V171.045C66.9243 171.085 66.9443 171.105 66.9843 171.105H69.8493C69.9493 171.105 69.9993 171.155 69.9993 171.255V172.2C69.9993 172.3 69.9493 172.35 69.8493 172.35H66.9843C66.9443 172.35 66.9243 172.37 66.9243 172.41V175.695C66.9243 175.735 66.9443 175.755 66.9843 175.755H71.3343C71.4343 175.755 71.4843 175.805 71.4843 175.905V176.85C71.4843 176.95 71.4343 177 71.3343 177H65.6343C65.5343 177 65.4843 176.95 65.4843 176.85V166.65C65.4843 166.55 65.5343 166.5 65.6343 166.5H71.3343C71.4343 166.5 71.4843 166.55 71.4843 166.65V167.595ZM72.589 177C72.529 177 72.489 176.985 72.469 176.955C72.449 176.915 72.454 176.87 72.484 176.82L74.614 173.235C74.634 173.205 74.634 173.175 74.614 173.145L72.484 169.545C72.464 169.505 72.454 169.475 72.454 169.455C72.454 169.395 72.499 169.365 72.589 169.365H73.819C73.889 169.365 73.949 169.4 73.999 169.47L75.424 171.915C75.434 171.925 75.449 171.93 75.469 171.93C75.489 171.93 75.504 171.925 75.514 171.915L76.939 169.47C76.989 169.4 77.049 169.365 77.119 169.365H78.394C78.454 169.365 78.494 169.385 78.514 169.425C78.534 169.455 78.529 169.495 78.499 169.545L76.369 173.145C76.359 173.175 76.359 173.205 76.369 173.235L78.499 176.82C78.519 176.86 78.529 176.89 78.529 176.91C78.529 176.97 78.484 177 78.394 177H77.164C77.094 177 77.034 176.965 76.984 176.895L75.559 174.435C75.549 174.415 75.534 174.405 75.514 174.405C75.494 174.405 75.479 174.415 75.469 174.435L74.044 176.895C73.994 176.965 73.934 177 73.864 177H72.589ZM82.2593 175.875C82.5993 175.875 82.8843 175.795 83.1143 175.635C83.3543 175.465 83.5343 175.235 83.6543 174.945C83.6843 174.855 83.7443 174.82 83.8343 174.84L84.8543 175.065C84.9543 175.095 84.9893 175.155 84.9593 175.245C84.7693 175.835 84.4393 176.295 83.9693 176.625C83.4993 176.955 82.9243 177.12 82.2443 177.12C81.4643 177.12 80.8343 176.925 80.3543 176.535C79.8743 176.145 79.5693 175.61 79.4393 174.93C79.3893 174.65 79.3543 174.355 79.3343 174.045C79.3243 173.725 79.3193 173.305 79.3193 172.785C79.3193 172.275 79.3443 171.87 79.3943 171.57C79.4843 170.87 79.7793 170.31 80.2793 169.89C80.7793 169.46 81.4093 169.245 82.1693 169.245C82.9993 169.245 83.6693 169.48 84.1793 169.95C84.6893 170.42 84.9743 171.04 85.0343 171.81C85.0643 172.15 85.0793 172.775 85.0793 173.685C85.0793 173.785 85.0293 173.835 84.9293 173.835H80.8193C80.7793 173.835 80.7593 173.855 80.7593 173.895C80.7593 174.175 80.7743 174.42 80.8043 174.63C80.8543 175 81.0093 175.3 81.2693 175.53C81.5293 175.76 81.8593 175.875 82.2593 175.875ZM82.1843 170.49C81.8043 170.49 81.4893 170.605 81.2393 170.835C80.9993 171.065 80.8543 171.365 80.8043 171.735C80.7743 172.005 80.7593 172.3 80.7593 172.62C80.7593 172.66 80.7793 172.68 80.8193 172.68H83.5793C83.6193 172.68 83.6393 172.66 83.6393 172.62C83.6193 172.22 83.5993 171.93 83.5793 171.75C83.5293 171.38 83.3793 171.08 83.1293 170.85C82.8793 170.61 82.5643 170.49 82.1843 170.49ZM89.8124 169.29C90.1124 169.29 90.3674 169.35 90.5774 169.47C90.6474 169.5 90.6724 169.56 90.6524 169.65L90.4274 170.79C90.4174 170.89 90.3574 170.92 90.2474 170.88C90.0974 170.83 89.9324 170.805 89.7524 170.805C89.6224 170.805 89.5274 170.81 89.4674 170.82C89.0774 170.85 88.7524 171.03 88.4924 171.36C88.2324 171.68 88.1024 172.065 88.1024 172.515V176.85C88.1024 176.95 88.0524 177 87.9524 177H86.8124C86.7124 177 86.6624 176.95 86.6624 176.85V169.515C86.6624 169.415 86.7124 169.365 86.8124 169.365H87.9524C88.0524 169.365 88.1024 169.415 88.1024 169.515V170.475C88.1024 170.505 88.1074 170.525 88.1174 170.535C88.1374 170.535 88.1524 170.525 88.1624 170.505C88.5224 169.695 89.0724 169.29 89.8124 169.29ZM94.3872 177.12C93.6172 177.12 92.9822 176.92 92.4822 176.52C91.9922 176.11 91.6922 175.555 91.5822 174.855C91.5122 174.405 91.4772 173.84 91.4772 173.16C91.4772 172.57 91.5122 172.015 91.5822 171.495C91.6922 170.815 91.9972 170.27 92.4972 169.86C92.9972 169.45 93.6272 169.245 94.3872 169.245C95.1272 169.245 95.7522 169.44 96.2622 169.83C96.7722 170.22 97.0772 170.72 97.1772 171.33L97.2372 171.69C97.2372 171.78 97.1872 171.835 97.0872 171.855L95.9622 171.945H95.9322C95.8722 171.945 95.8322 171.91 95.8122 171.84L95.7972 171.78L95.7672 171.6C95.7172 171.29 95.5672 171.03 95.3172 170.82C95.0672 170.6 94.7522 170.49 94.3722 170.49C93.9922 170.49 93.6772 170.605 93.4272 170.835C93.1872 171.065 93.0422 171.37 92.9922 171.75C92.9422 172.17 92.9172 172.645 92.9172 173.175C92.9172 173.765 92.9472 174.25 93.0072 174.63C93.0572 175.01 93.2022 175.315 93.4422 175.545C93.6822 175.765 93.9922 175.875 94.3722 175.875C94.7622 175.875 95.0822 175.77 95.3322 175.56C95.5822 175.34 95.7272 175.07 95.7672 174.75L95.7822 174.6C95.7922 174.5 95.8472 174.455 95.9472 174.465L97.0722 174.54C97.1722 174.54 97.2222 174.595 97.2222 174.705L97.1772 174.96C97.0972 175.6 96.8022 176.12 96.2922 176.52C95.7822 176.92 95.1472 177.12 94.3872 177.12ZM99.5431 168.165C99.2631 168.165 99.0331 168.075 98.8531 167.895C98.6731 167.715 98.5831 167.485 98.5831 167.205C98.5831 166.915 98.6731 166.685 98.8531 166.515C99.0331 166.335 99.2631 166.245 99.5431 166.245C99.8231 166.245 100.053 166.335 100.233 166.515C100.413 166.695 100.503 166.925 100.503 167.205C100.503 167.485 100.408 167.715 100.218 167.895C100.038 168.075 99.8131 168.165 99.5431 168.165ZM98.9581 177C98.8581 177 98.8081 176.95 98.8081 176.85V169.515C98.8081 169.415 98.8581 169.365 98.9581 169.365H100.098C100.198 169.365 100.248 169.415 100.248 169.515V176.85C100.248 176.95 100.198 177 100.098 177H98.9581ZM104.634 177.09C103.814 177.09 103.154 176.9 102.654 176.52C102.164 176.14 101.919 175.65 101.919 175.05V174.9C101.919 174.8 101.969 174.75 102.069 174.75H103.134C103.234 174.75 103.284 174.8 103.284 174.9V174.99C103.284 175.26 103.414 175.495 103.674 175.695C103.934 175.895 104.254 175.995 104.634 175.995C105.014 175.995 105.319 175.9 105.549 175.71C105.789 175.52 105.909 175.285 105.909 175.005C105.909 174.785 105.839 174.605 105.699 174.465C105.569 174.325 105.404 174.215 105.204 174.135C105.014 174.045 104.729 173.935 104.349 173.805C103.879 173.655 103.479 173.5 103.149 173.34C102.829 173.17 102.554 172.935 102.324 172.635C102.094 172.325 101.979 171.935 101.979 171.465C101.979 170.795 102.214 170.265 102.684 169.875C103.164 169.485 103.799 169.29 104.589 169.29C105.389 169.29 106.029 169.49 106.509 169.89C106.999 170.29 107.244 170.815 107.244 171.465V171.495C107.244 171.595 107.194 171.645 107.094 171.645H106.044C105.944 171.645 105.894 171.595 105.894 171.495V171.435C105.894 171.145 105.774 170.905 105.534 170.715C105.294 170.525 104.979 170.43 104.589 170.43C104.219 170.43 103.919 170.52 103.689 170.7C103.469 170.88 103.359 171.11 103.359 171.39C103.359 171.6 103.424 171.775 103.554 171.915C103.684 172.045 103.844 172.155 104.034 172.245C104.234 172.335 104.524 172.445 104.904 172.575C105.404 172.745 105.814 172.91 106.134 173.07C106.464 173.23 106.749 173.46 106.989 173.76C107.229 174.06 107.349 174.445 107.349 174.915C107.349 175.585 107.104 176.115 106.614 176.505C106.124 176.895 105.464 177.09 104.634 177.09ZM111.527 175.875C111.867 175.875 112.152 175.795 112.382 175.635C112.622 175.465 112.802 175.235 112.922 174.945C112.952 174.855 113.012 174.82 113.102 174.84L114.122 175.065C114.222 175.095 114.257 175.155 114.227 175.245C114.037 175.835 113.707 176.295 113.237 176.625C112.767 176.955 112.192 177.12 111.512 177.12C110.732 177.12 110.102 176.925 109.622 176.535C109.142 176.145 108.837 175.61 108.707 174.93C108.657 174.65 108.622 174.355 108.602 174.045C108.592 173.725 108.587 173.305 108.587 172.785C108.587 172.275 108.612 171.87 108.662 171.57C108.752 170.87 109.047 170.31 109.547 169.89C110.047 169.46 110.677 169.245 111.437 169.245C112.267 169.245 112.937 169.48 113.447 169.95C113.957 170.42 114.242 171.04 114.302 171.81C114.332 172.15 114.347 172.775 114.347 173.685C114.347 173.785 114.297 173.835 114.197 173.835H110.087C110.047 173.835 110.027 173.855 110.027 173.895C110.027 174.175 110.042 174.42 110.072 174.63C110.122 175 110.277 175.3 110.537 175.53C110.797 175.76 111.127 175.875 111.527 175.875ZM111.452 170.49C111.072 170.49 110.757 170.605 110.507 170.835C110.267 171.065 110.122 171.365 110.072 171.735C110.042 172.005 110.027 172.3 110.027 172.62C110.027 172.66 110.047 172.68 110.087 172.68H112.847C112.887 172.68 112.907 172.66 112.907 172.62C112.887 172.22 112.867 171.93 112.847 171.75C112.797 171.38 112.647 171.08 112.397 170.85C112.147 170.61 111.832 170.49 111.452 170.49Z" fill="#ACADBF"/>
</svg>
