<svg width="274" height="305" viewBox="0 0 274 305" fill="none" xmlns="http://www.w3.org/2000/svg">
<path d="M118.389 296L136.408 269.826L163.163 294.909L195.925 296L217.22 275.825L245.067 256.74L248.343 228.385L268 202.211L260.902 174.947L268 148.228L254.349 117.147V93.1547L226.502 66.4359L220.496 35.3547L165.893 7L136.408 14.634L108.015 7L56.1423 35.3547L50.682 66.4359L22.2887 86.066V113.33L10.8222 134.596V161.86L7 202.211L22.2887 222.932L33.2092 256.74L56.1423 275.825L77.9833 296H118.389Z" fill="#CA5A8C" fill-opacity="0.2"/>
<path d="M136.856 282.134C130.301 291.757 122.088 298.526 111.449 302.228C90.7197 309.436 68.385 302.136 55.3261 283.954C54.402 282.666 53.0505 281.407 51.6181 280.812C32.4831 272.87 20.7584 255.451 20.949 234.693C20.9721 232.122 20.1577 230.713 18.1362 229.223C0.156406 216.002 -5.02442 192.668 5.38921 172.973C5.98988 171.835 6.16893 169.912 5.62024 168.815C-3.15308 151.297 -1.6976 134.865 10.287 119.294C11.2111 118.098 11.523 115.95 11.2573 114.39C7.71105 93.9787 17.3045 75.1614 35.9774 66.3245C38.0914 65.3253 40.3323 64.5918 41.886 63.9854C41.886 59.0009 41.4701 54.3803 41.9669 49.858C43.1336 39.2942 48.7764 31.4103 57.6017 25.6865C61.2867 23.2954 64.9658 20.8869 68.6045 18.4207C80.8606 10.1036 93.7982 3.42691 108.607 0.885592C119.321 -0.951088 128.805 1.15705 135.978 8.3536C141.488 5.74875 146.398 2.64719 151.758 1.08774C159.832 -1.26298 168.08 0.492844 175.629 3.53087C184.587 7.1407 193.25 11.5765 201.758 16.1855C207.389 19.2351 212.553 23.1568 217.866 26.7782C228.944 34.3328 234.35 47.9808 231.578 61.2072C231.416 61.9639 231.301 62.732 231.249 63.0381C236.297 65.8163 241.535 67.8898 245.821 71.1992C259.931 82.098 265.418 96.6355 262.519 114.269C262.207 116.163 262.057 117.723 263.541 119.513C275.173 133.525 277.039 151.95 268.485 167.989C267.382 170.057 267.463 171.547 268.52 173.499C278.806 192.541 273.568 216.054 256.108 228.888C253.797 230.586 252.85 232.238 252.879 235.189C253.098 255.295 241.351 272.72 222.712 280.61C221.078 281.303 219.472 282.625 218.444 284.075C198.968 311.533 159.023 311.966 138.97 284.878C138.364 284.075 137.746 283.295 136.856 282.134ZM16.8887 183.445C16.9118 183.387 16.6057 183.988 16.3862 184.617C11.7252 197.999 17.7088 212.993 30.3288 219.583C36.041 222.564 36.7687 223.967 35.8908 230.28C33.5516 247.035 43.1971 262.63 59.2709 267.793C62.384 268.792 64.4344 270.502 66.1498 273.286C73.6467 285.479 84.7245 291.295 98.9617 289.92C112.344 288.621 121.643 281.199 127.061 268.937C129.995 262.306 129.527 255.254 129.521 248.248C129.498 196.018 129.515 143.789 129.504 91.5587C129.504 83.1146 124.9 78.0088 116.572 77.0558C115.463 76.9288 114.296 76.8479 113.285 76.432C110.086 75.1094 108.497 71.9674 109.058 68.4096C109.589 65.0365 112.252 62.3335 115.861 62.5761C120.384 62.8822 124.848 63.9507 129.452 64.7016C129.452 52.2491 129.654 39.479 129.365 26.7204C129.221 20.5577 123.364 15.3307 117.225 15.1285C106.811 14.7878 97.6448 18.7152 88.2304 23.59C89.6166 24.3986 90.5696 24.9415 91.5052 25.5133C97.2463 28.9903 101.844 33.5589 104.645 39.7273C106.384 43.5566 105.067 47.5361 101.653 49.367C98.026 51.3077 93.9599 50.1525 91.6843 46.5196C91.0836 45.5608 90.5696 44.5501 89.9285 43.6259C85.2848 36.955 76.9042 34.096 69.2918 36.5565C61.2867 39.144 56.0019 46.5196 56.2271 54.7846C56.3888 60.7856 57.6248 62.2642 63.4583 63.4193C82.7954 67.2487 97.9105 85.9273 97.6506 105.559C97.6044 109.007 96.2067 111.421 93.082 112.773C87.803 115.054 83.3153 111.335 82.8417 104.479C82.0042 92.373 75.8299 83.7499 64.7521 79.2448C53.7436 74.7744 43.2317 76.7728 34.5393 84.8646C25.6389 93.1412 22.9994 103.589 26.8287 115.199C28.3939 119.941 27.4756 123.187 23.8888 126.606C8.04604 141.715 13.7756 167.561 34.4989 174.642C37.6408 175.717 41.1178 175.85 44.4446 176.352C48.5108 176.964 51.2484 180.112 51.0521 184.045C50.8615 187.904 47.7541 190.895 43.6765 190.924C41.4297 190.942 39.0443 191.063 36.9535 190.404C30.3346 188.314 23.8484 185.888 16.8887 183.445ZM256.489 182.7C256.004 182.786 255.749 182.763 255.57 182.873C254.704 183.404 253.867 183.982 253 184.513C245.988 188.781 238.411 191.057 230.175 190.93C226.022 190.866 223.03 188.013 222.828 184.04C222.626 180.199 225.173 177.103 229.106 176.468C230.221 176.289 231.353 176.248 232.479 176.133C244.689 174.868 253.139 168.405 257.263 156.998C261.317 145.793 258.868 135.454 250.424 127.097C246.537 123.244 245.399 119.837 247.225 114.546C251.204 103 246.739 89.9761 237.025 82.8604C226.738 75.3231 213.431 75.0748 203.156 82.4272C195.301 88.047 191.333 95.7865 190.917 105.478C190.703 110.52 187.278 113.732 183.062 113.426C178.863 113.119 176.218 109.81 176.241 104.889C176.339 84.2408 191.726 66.8501 213.367 62.7089C214.569 62.4779 216.099 61.1957 216.515 60.0521C219.9 50.8398 214.782 40.2414 205.524 36.8799C196.479 33.5935 187.665 37.0532 182.502 45.9189C180.087 50.0601 176.345 51.3885 172.533 49.4652C168.576 47.461 167.335 43.418 169.489 39.1036C172.342 33.3971 176.605 28.9787 182.074 25.7039C183.108 25.0859 184.125 24.4448 185.228 23.7632C180.111 20.0263 167.843 15.6657 161.339 15.1978C149.707 14.3604 144.307 19.4257 144.313 31.133C144.318 48.2003 144.313 65.2733 144.313 82.3406C144.313 83.5073 144.313 84.674 144.313 85.4884C148.945 84.6278 153.092 83.5131 157.296 83.1781C161.582 82.8373 164.724 86.0428 164.915 90.109C165.105 94.152 162.246 97.3575 157.99 97.8715C148.333 99.044 144.318 103.549 144.313 113.241C144.307 147.266 144.307 181.29 144.307 215.315C144.307 216.955 144.307 218.596 144.307 220.848C145.647 219.803 146.352 219.081 147.195 218.625C152.809 215.563 158.411 212.485 164.118 209.603C165.348 208.979 166.988 208.852 168.403 208.95C171.799 209.187 174.514 211.994 174.866 215.309C175.271 219.081 173.145 222.154 169.171 223.424C154.836 228.022 146.3 237.806 144.509 252.661C142.597 268.538 152.376 283.295 167.26 288.39C182.363 293.559 198.899 287.702 207.326 273.887C209.29 270.67 211.634 268.769 215.181 267.562C230.949 262.202 240.282 246.729 237.943 230.28C237.059 224.048 237.839 222.541 243.499 219.578C256.887 212.543 262.807 195.891 256.489 182.7Z" fill="#393945"/>
<path d="M71.3944 147.953C59.5773 145.169 50.4227 139.191 43.8731 129.494C39.0099 122.297 36.3877 114.361 36.4513 105.623C36.4859 101.042 39.1254 98.0679 43.2262 97.8888C47.6619 97.6924 50.7866 100.286 50.9945 104.981C51.4277 114.725 55.1184 122.707 63.06 128.494C74.1321 136.569 88.9468 135.72 99.32 126.583C100.648 125.41 102.098 124.203 103.71 123.556C106.788 122.32 110.109 123.66 111.957 126.484C113.927 129.488 113.574 133.086 110.947 135.778C105.113 141.744 98.1187 145.712 89.9749 147.508C87.6646 148.016 86.4575 148.883 85.7124 151.36C81.681 164.76 68.7029 174.481 55.1531 174.59C50.2437 174.631 46.9631 171.951 46.7205 167.717C46.4721 163.316 49.5391 160.163 54.5928 159.833C62.4305 159.314 67.877 155.507 71.3944 147.953Z" fill="#393945"/>
<path d="M64.0071 216.505C64.4807 209.655 66.2942 203.18 69.829 197.295C78.0825 183.577 90.3097 176.358 106.233 175.422C111.31 175.122 114.949 178.321 114.972 182.763C115.001 187.066 111.732 189.965 106.638 190.167C91.563 190.768 79.6477 202.533 78.6312 217.631C78.4695 220.016 79.5149 220.963 81.3689 222.003C96.1547 230.314 104.027 242.929 104.46 259.967C104.57 264.304 102.144 267.123 98.3842 267.643C93.7694 268.284 90.2404 265.442 89.9689 260.614C89.6166 254.26 88.0341 248.369 84.1239 243.246C78.6716 236.102 71.4289 232.197 62.4765 231.62C56.8278 231.256 53.5068 228.541 53.5819 224.048C53.657 219.733 56.8336 217.151 62.4823 216.793C62.9212 216.776 63.3486 216.637 64.0071 216.505Z" fill="#393945"/>
<path d="M192.136 148.935C195.006 155.311 199.471 159.037 205.888 160.376C207.32 160.677 208.799 160.735 210.254 160.937C214.13 161.468 216.908 164.599 216.815 168.312C216.723 172.101 213.564 175.353 209.561 175.364C196.843 175.388 187.261 169.647 180.711 158.915C178.863 155.889 178.534 151.569 176.12 149.362C173.798 147.242 169.414 147.577 166.405 145.972C161.871 143.552 157.51 140.67 153.508 137.447C149.557 134.264 149.291 129.603 152.168 126.45C155.315 123.002 159.462 123.135 163.482 126.814C175.894 138.175 194.434 137.383 205.223 124.983C209.665 119.877 212.102 113.94 212.31 107.107C212.472 101.724 215.441 98.5127 219.957 98.6456C224.457 98.7784 227.235 102.221 227.119 107.511C226.721 125.953 213.627 142.691 195.497 147.941C194.533 148.224 193.574 148.513 192.136 148.935Z" fill="#393945"/>
<path d="M216.867 222.829C217.953 222.829 218.623 222.795 219.287 222.835C224.081 223.118 227.188 226.15 227.096 230.448C227.009 234.56 223.902 237.511 219.27 237.644C213.344 237.817 207.915 239.481 203.133 242.958C195.774 248.3 191.598 255.474 191.021 264.646C190.928 266.101 190.824 267.609 190.397 268.989C189.369 272.304 185.996 274.193 182.351 273.702C178.892 273.234 176.235 270.381 176.27 266.702C176.414 249.946 183.819 237.182 198.223 228.83C201.833 226.739 202.382 224.556 201.758 221.033C199.188 206.513 188.583 197.058 173.815 196.255C168.813 195.984 165.683 192.923 165.873 188.487C166.052 184.259 169.368 181.446 174.173 181.446C194.885 181.435 214.043 198.589 216.347 219.208C216.469 220.323 216.665 221.426 216.867 222.829Z" fill="#393945"/>
</svg>
