<svg width="123" height="123" viewBox="0 0 123 123" fill="none" xmlns="http://www.w3.org/2000/svg">
<circle cx="61.3983" cy="61.3983" r="61.3983" fill="#A245C7"/>
<g clip-path="url(#clip0)">
<path d="M95.1516 60.9583C90.2661 50.152 76.8595 42.8916 61.7921 42.8916C46.7235 42.8916 33.3175 50.1515 28.4326 60.9577C28.3063 61.2367 28.3063 61.5577 28.4326 61.8372C33.3191 72.6435 46.7257 79.9044 61.7921 79.9044C76.8574 79.9044 90.264 72.644 95.1516 61.8378C95.2778 61.5588 95.2778 61.2378 95.1516 60.9583ZM61.7921 77.7895C47.7374 77.7895 35.2562 71.2213 30.5381 61.3977C35.2546 51.5742 47.7353 45.0066 61.7921 45.0066C75.8478 45.0066 88.3285 51.5742 93.0461 61.3977C88.3269 71.2213 75.8462 77.7895 61.7921 77.7895Z" fill="white"/>
<path d="M71.005 50.5665C68.4376 48.3233 65.151 47.0884 61.7489 47.0884C58.3414 47.0884 55.0451 48.3293 52.4696 50.5829C49.3454 53.3153 47.5545 57.2772 47.5545 61.4492C47.5545 69.3702 53.9227 75.8144 61.7494 75.8144C69.5778 75.8144 75.9465 69.3696 75.9465 61.4492C75.9454 57.263 74.1454 53.2973 71.005 50.5665ZM69.0943 65.6939C66.7822 65.6939 64.9012 63.7918 64.9012 61.4514C64.9012 60.2181 65.431 59.0493 66.3537 58.2413C67.114 57.5763 68.088 57.2084 69.0943 57.2084C70.0995 57.2084 71.0703 57.5742 71.8284 58.2369C72.7554 59.0433 73.2869 60.2138 73.2869 61.4514C73.2874 63.7918 71.4059 65.6939 69.0943 65.6939Z" fill="white"/>
<ellipse cx="66.2436" cy="61.3982" rx="7.82403" ry="7.77959" fill="white"/>
</g>
<defs>
<clipPath id="clip0">
<rect width="66.9084" height="67.6955" fill="white" transform="translate(28.3379 27.5503)"/>
</clipPath>
</defs>
</svg>
