<svg width="123" height="123" viewBox="0 0 123 123" fill="none" xmlns="http://www.w3.org/2000/svg">
<circle cx="61.3983" cy="61.3983" r="61.3983" fill="#5EBAED"/>
<g clip-path="url(#clip0)">
<path d="M61.398 27.5503C54.8362 27.5503 49.4984 33.0203 49.4984 39.5821C49.4984 46.144 54.8362 51.4817 61.398 51.4817C67.9599 51.4817 73.2976 46.144 73.2976 39.5821C73.2976 33.0203 67.9599 27.5503 61.398 27.5503Z" fill="white"/>
<path d="M65.3644 51.4819H61.3979H57.4313C54.6339 51.4819 51.9307 52.205 49.4731 53.4352C53.6471 54.5614 57.5772 56.1835 61.3979 58.3764C65.2187 56.1835 69.1486 54.5614 73.3226 53.4352C70.8651 52.205 68.1619 51.4819 65.3644 51.4819Z" fill="white"/>
<path d="M91.2793 63.3813C89.0886 63.3813 87.3127 65.1572 87.3127 67.3479V75.281C87.3127 77.4714 89.0886 79.2475 91.2793 79.2475C93.47 79.2475 95.2458 77.4714 95.2458 75.281V67.3479C95.2458 65.1572 93.47 63.3813 91.2793 63.3813Z" fill="white"/>
<path d="M31.5168 63.3813C29.3261 63.3813 27.5503 65.1572 27.5503 67.3479V75.281C27.5503 77.4714 29.3261 79.2475 31.5168 79.2475C33.7075 79.2475 35.4834 77.4714 35.4834 75.281V67.3479C35.4834 65.1572 33.7075 63.3813 31.5168 63.3813Z" fill="white"/>
<path d="M33.5001 55.4482C32.4038 55.4482 31.5168 56.3353 31.5168 57.4315V59.4148C35.892 59.4148 39.4499 62.9726 39.4499 67.3478V75.2809C39.4499 79.6561 35.892 83.214 31.5168 83.214V85.1973C31.5168 86.2935 32.4038 87.1805 33.5001 87.1805C43.6677 87.1805 51.7977 90.3916 59.4147 95.2458V61.8732C51.7633 57.4862 43.5358 55.4482 33.5001 55.4482Z" fill="white"/>
<path d="M91.2793 59.4148V57.4315C91.2793 56.3353 90.3923 55.4482 89.296 55.4482C79.2603 55.4482 71.0328 57.4862 63.3813 61.8732V95.2458C70.9984 90.3916 79.1284 87.1805 89.296 87.1805C90.3923 87.1805 91.2793 86.2935 91.2793 85.1973V83.214C86.9041 83.214 83.3462 79.6561 83.3462 75.2809V67.3478C83.3462 62.9726 86.9041 59.4148 91.2793 59.4148Z" fill="white"/>
</g>
<defs>
<clipPath id="clip0">
<rect width="67.6955" height="67.6955" fill="white" transform="translate(27.5503 27.5503)"/>
</clipPath>
</defs>
</svg>
