<svg width="320" height="123" viewBox="0 0 320 123" fill="none" xmlns="http://www.w3.org/2000/svg">
<circle cx="61.3983" cy="61.3983" r="61.3983" fill="#5EBAED"/>
<g clip-path="url(#clip0)">
<path d="M61.398 27.5503C54.8362 27.5503 49.4984 33.0203 49.4984 39.5821C49.4984 46.144 54.8362 51.4817 61.398 51.4817C67.9599 51.4817 73.2976 46.144 73.2976 39.5821C73.2976 33.0203 67.9599 27.5503 61.398 27.5503Z" fill="white"/>
<path d="M65.3644 51.4819H61.3979H57.4313C54.6339 51.4819 51.9307 52.205 49.4731 53.4352C53.6471 54.5614 57.5772 56.1835 61.3979 58.3764C65.2187 56.1835 69.1486 54.5614 73.3226 53.4352C70.8651 52.205 68.1619 51.4819 65.3644 51.4819Z" fill="white"/>
<path d="M91.2793 63.3813C89.0886 63.3813 87.3127 65.1572 87.3127 67.3479V75.281C87.3127 77.4714 89.0886 79.2475 91.2793 79.2475C93.47 79.2475 95.2458 77.4714 95.2458 75.281V67.3479C95.2458 65.1572 93.47 63.3813 91.2793 63.3813Z" fill="white"/>
<path d="M31.5168 63.3813C29.3261 63.3813 27.5503 65.1572 27.5503 67.3479V75.281C27.5503 77.4714 29.3261 79.2475 31.5168 79.2475C33.7075 79.2475 35.4834 77.4714 35.4834 75.281V67.3479C35.4834 65.1572 33.7075 63.3813 31.5168 63.3813Z" fill="white"/>
<path d="M33.5001 55.4482C32.4038 55.4482 31.5168 56.3353 31.5168 57.4315V59.4148C35.892 59.4148 39.4499 62.9726 39.4499 67.3478V75.2809C39.4499 79.6561 35.892 83.214 31.5168 83.214V85.1973C31.5168 86.2935 32.4038 87.1805 33.5001 87.1805C43.6677 87.1805 51.7977 90.3916 59.4147 95.2458V61.8732C51.7633 57.4862 43.5358 55.4482 33.5001 55.4482Z" fill="white"/>
<path d="M91.2793 59.4148V57.4315C91.2793 56.3353 90.3923 55.4482 89.296 55.4482C79.2603 55.4482 71.0328 57.4862 63.3813 61.8732V95.2458C70.9984 90.3916 79.1284 87.1805 89.296 87.1805C90.3923 87.1805 91.2793 86.2935 91.2793 85.1973V83.214C86.9041 83.214 83.3462 79.6561 83.3462 75.2809V67.3478C83.3462 62.9726 86.9041 59.4148 91.2793 59.4148Z" fill="white"/>
</g>
<circle cx="258.398" cy="61.3983" r="61.3983" fill="#5EBAED"/>
<g clip-path="url(#clip1)">
<path d="M286.337 29.7676H253.83C253.02 29.7676 252.363 30.4243 252.363 31.2345V42.6649L253.99 41.6547C254.404 41.3976 254.847 41.2241 255.297 41.1288V32.7015H284.87V53.8584H255.297V50.4353L252.363 52.257V55.3255C252.363 56.1357 253.02 56.7925 253.83 56.7925H286.337C287.147 56.7925 287.804 56.1357 287.804 55.3255V31.2345C287.804 30.4243 287.147 29.7676 286.337 29.7676Z" fill="white"/>
<path d="M265.009 37.9102C264.623 37.4208 263.914 37.3371 263.424 37.7228L258.372 41.7069C258.854 42.0222 259.277 42.4446 259.601 42.9665C259.693 43.1142 259.773 43.2661 259.844 43.4201L264.822 39.495C265.311 39.1092 265.395 38.3996 265.009 37.9102Z" fill="white"/>
<path d="M240.619 35.995C242.951 35.995 244.842 34.1046 244.842 31.7727C244.842 29.4407 242.951 27.5503 240.619 27.5503C238.288 27.5503 236.397 29.4407 236.397 31.7727C236.397 34.1046 238.288 35.995 240.619 35.995Z" fill="white"/>
<path d="M257.87 44.0416C257.277 43.0858 256.021 42.792 255.065 43.3854L250.939 45.9471C250.922 42.5255 250.931 44.3413 250.92 42.1378C250.907 39.4928 248.744 37.3408 246.099 37.3408H244.094C242.382 41.7817 242.934 40.1333 241.48 43.9028L242.092 41.2411C242.134 41.0417 242.103 40.8339 242.005 40.6554L241.177 39.149L241.912 37.8124C242.021 37.6131 241.877 37.3687 241.649 37.3687H239.63C239.403 37.3687 239.258 37.6131 239.368 37.8124L240.104 39.1518L239.274 40.6609C239.178 40.8361 239.147 41.0397 239.186 41.2357L239.715 43.9028C239.43 43.1625 237.456 38.0447 237.185 37.3408H235.14C232.495 37.3408 230.332 39.4927 230.319 42.1378L230.243 57.1048C230.238 58.23 231.145 59.1467 232.271 59.1524C232.274 59.1524 232.277 59.1524 232.281 59.1524C233.401 59.1524 234.312 58.2469 234.318 57.1253L234.393 42.1583C234.393 42.1559 234.393 42.1535 234.393 42.1513C234.396 41.9292 234.578 41.7512 234.8 41.7529C235.022 41.7545 235.201 41.9351 235.201 42.1572L235.202 63.3624C237.067 63.2831 238.795 63.9558 240.092 65.1372V56.8646H241.147V66.3542C241.891 67.4474 242.326 68.7663 242.326 70.1851C242.326 71.4778 241.965 72.6877 241.338 73.7194C241.982 73.7225 242.607 73.8079 243.203 73.9655C244.006 73.2686 244.972 72.7555 246.037 72.4931C246.037 35.5592 245.993 58.3951 245.993 42.16C245.993 41.9248 246.183 41.7341 246.418 41.7337C246.653 41.7332 246.844 41.9231 246.845 42.1583C246.853 43.5872 246.875 48.0539 246.883 49.6089C246.887 50.3465 247.289 51.0247 247.934 51.3815C248.579 51.7377 249.367 51.7192 249.995 51.3294L257.214 46.8469C258.17 46.2536 258.464 44.9974 257.87 44.0416Z" fill="white"/>
<path d="M281.301 74.7034C283.769 74.7034 285.77 72.7024 285.77 70.234C285.77 67.7656 283.769 65.7646 281.301 65.7646C278.833 65.7646 276.832 67.7656 276.832 70.234C276.832 72.7024 278.833 74.7034 281.301 74.7034Z" fill="white"/>
<path d="M292.174 81.2056C292.16 78.4058 289.871 76.1279 287.071 76.1279C285.863 76.1279 276.945 76.1279 275.861 76.1279C276.342 77.0624 276.616 78.1203 276.616 79.2417C276.616 80.4323 276.298 81.6762 275.624 82.7827C278.123 82.8837 280.313 84.2252 281.593 86.2067H286.959V81.2578C286.959 81.0143 287.152 80.8146 287.395 80.8063C287.639 80.798 287.845 80.9841 287.861 81.227C287.861 81.227 287.861 81.2272 287.861 81.2273L287.886 86.2067H292.199L292.174 81.2056Z" fill="white"/>
<path d="M262.956 79.2417C262.956 78.1008 263.238 77.0254 263.735 76.0791C260.825 76.0791 257.408 76.0791 253.783 76.0791C254.242 76.9966 254.502 78.0301 254.502 79.1239C254.502 80.4092 254.141 81.6263 253.515 82.6582C255.572 82.668 257.469 83.5227 258.841 84.9412C260.17 83.6426 261.982 82.8371 263.976 82.8264C263.283 81.7089 262.956 80.4542 262.956 79.2417Z" fill="white"/>
<path d="M259.564 65.7153C257.096 65.7153 255.095 67.7161 255.095 70.1847C255.095 72.6476 257.092 74.654 259.564 74.654C262.013 74.654 264.034 72.6754 264.034 70.1847C264.034 67.7188 262.036 65.7153 259.564 65.7153Z" fill="white"/>
<path d="M240.841 79.1239C240.841 78.0329 241.1 77.0014 241.557 76.0856C241.364 76.076 242.175 76.0791 229.725 76.0791C226.94 76.0791 224.636 78.345 224.622 81.1568L224.597 86.2069C226.568 86.2069 226.964 86.2069 228.91 86.2069L228.935 81.1786C228.936 80.9295 229.139 80.7288 229.388 80.7294C229.636 80.7302 229.838 80.932 229.838 81.1808V86.2069H235.884C237.187 84.124 239.427 82.8161 241.865 82.7156C241.204 81.6497 240.841 80.4196 240.841 79.1239Z" fill="white"/>
<path d="M235.496 65.7153C233.028 65.7153 231.027 67.7163 231.027 70.1847C231.027 72.6418 233.016 74.654 235.496 74.654C237.947 74.654 239.966 72.6688 239.966 70.1847C239.966 67.7162 237.964 65.7153 235.496 65.7153Z" fill="white"/>
<path d="M280.417 90.1958C280.403 87.3956 278.113 85.1178 275.313 85.1178C275.016 85.1178 264.343 85.1178 264.008 85.1178C261.208 85.1178 258.772 87.3955 258.758 90.1955L258.721 90.0777C258.707 87.2889 256.429 85 253.618 85C250.373 85 245.712 85 242.313 85C239.513 85 237.077 87.2777 237.063 90.0777L237.037 95.2455H241.35L241.375 90.0994C241.377 89.8849 241.551 89.712 241.765 89.7125C241.98 89.713 242.153 89.887 242.153 90.1013V95.2457C244.681 95.2457 251.208 95.2457 253.575 95.2457V90.1013C253.575 89.8718 253.761 89.6857 253.991 89.685C254.22 89.6845 254.407 89.8697 254.408 90.0992L254.434 95.2455C255.315 95.2455 262.134 95.2455 263.045 95.2455L263.071 90.2172C263.071 90.2172 263.071 90.217 263.071 90.2169C263.072 90.0026 263.246 89.8298 263.461 89.8303C263.675 89.8308 263.848 90.0048 263.848 90.2192V95.2455C266.376 95.2455 272.903 95.2455 275.271 95.2455V90.2192C275.271 89.9896 275.456 89.8035 275.686 89.8028C275.915 89.8023 276.102 89.9875 276.103 90.217L276.129 95.2454H280.442L280.417 90.1958Z" fill="white"/>
<path d="M247.812 83.6276C250.309 83.6276 252.333 81.6032 252.333 79.106C252.333 76.6089 250.309 74.5845 247.812 74.5845C245.314 74.5845 243.29 76.6089 243.29 79.106C243.29 81.6032 245.314 83.6276 247.812 83.6276Z" fill="white"/>
<path d="M269.778 83.7453C272.275 83.7453 274.3 81.7209 274.3 79.2237C274.3 76.7265 272.275 74.7021 269.778 74.7021C267.281 74.7021 265.257 76.7265 265.257 79.2237C265.257 81.7209 267.281 83.7453 269.778 83.7453Z" fill="white"/>
</g>
<defs>
<clipPath id="clip0">
<rect width="67.6955" height="67.6955" fill="white" transform="translate(27.5503 27.5503)"/>
</clipPath>
<clipPath id="clip1">
<rect width="67.6955" height="67.6955" fill="white" transform="translate(224.55 27.5503)"/>
</clipPath>
</defs>
</svg>
