<svg width="123" height="123" viewBox="0 0 123 123" fill="none" xmlns="http://www.w3.org/2000/svg">
<circle cx="61.3983" cy="61.3983" r="61.3983" fill="#C4865F"/>
<g clip-path="url(#clip0)">
<path d="M61.3981 49.9752C64.8055 49.9752 67.5658 47.2152 67.5658 43.8074C67.5658 40.4019 64.8057 37.6406 61.3981 37.6406C57.9905 37.6406 55.2323 40.4019 55.2323 43.8074C55.2324 47.2151 57.9905 49.9752 61.3981 49.9752Z" fill="white"/>
<path d="M90.9577 29.885C90.0932 29.885 89.3621 30.3346 88.889 30.9855V30.1523C88.889 28.7148 87.7222 27.5503 86.2855 27.5503C84.8492 27.5503 83.6823 28.7148 83.6823 30.1524V34.002H39.1133V30.1524C39.1133 28.7148 37.9468 27.5503 36.5101 27.5503C35.0737 27.5503 33.9068 28.7148 33.9068 30.1524V30.9856C33.4338 30.3348 32.7024 29.8851 31.8383 29.8851C30.4019 29.8851 29.2351 31.0496 29.2351 32.4873V38.9101C29.2351 40.3476 30.4019 41.5122 31.8383 41.5122C32.7024 41.5122 33.4338 41.0626 33.9068 40.4128V41.246C33.9068 42.6836 35.0737 43.8482 36.5101 43.8482C37.9466 43.8482 39.1133 42.6836 39.1133 41.246V37.3964H40.7575C40.8016 37.6363 45.9219 47.7409 45.9219 47.7409C46.0589 48.0084 46.2423 48.2493 46.4632 48.4547L53.9239 55.3937V73.7623L47.8733 79.5743C47.2722 80.15 46.9342 80.9456 46.9342 81.7778V92.1906C46.9342 93.8779 48.302 95.2458 49.9883 95.2458C51.6746 95.2458 53.0423 93.8779 53.0423 92.1906V83.0794L57.442 78.853H65.3534L69.7557 83.0794V92.1906C69.7557 93.8779 71.1235 95.2458 72.8097 95.2458C74.4958 95.2458 75.8637 93.8779 75.8637 92.1906V81.7778C75.8637 80.9456 75.5256 80.1501 74.9246 79.5743L68.8763 73.7644V55.3916L76.3325 48.4536C76.5534 48.2493 76.7368 48.0082 76.8738 47.7409C76.8738 47.7409 81.9941 37.6363 82.0385 37.3964H83.6824V41.246C83.6824 42.6836 84.8494 43.8482 86.2857 43.8482C87.7222 43.8482 88.8892 42.6836 88.8892 41.246V40.4117C89.3621 41.0626 90.0932 41.5122 90.9578 41.5122C92.3939 41.5122 93.5608 40.3476 93.5608 38.9101V32.4871C93.5606 31.0495 92.3938 29.885 90.9577 29.885ZM72.4539 44.953L65.7822 51.1618H57.0179L50.3417 44.953L46.448 37.3963H76.3477L72.4539 44.953Z" fill="white"/>
</g>
<defs>
<clipPath id="clip0">
<rect width="67.6955" height="67.6955" fill="white" transform="translate(27.5503 27.5503)"/>
</clipPath>
</defs>
</svg>
